<?xml version="1.0" encoding="UTF-8" standalone="no"?>
<svg
   xmlns:dc="http://purl.org/dc/elements/1.1/"
   xmlns:cc="http://creativecommons.org/ns#"
   xmlns:rdf="http://www.w3.org/1999/02/22-rdf-syntax-ns#"
   xmlns:svg="http://www.w3.org/2000/svg"
   xmlns="http://www.w3.org/2000/svg"
   xmlns:sodipodi="http://sodipodi.sourceforge.net/DTD/sodipodi-0.dtd"
   xmlns:inkscape="http://www.inkscape.org/namespaces/inkscape"
   width="200mm"
   height="230mm"
   viewBox="0 0 200 230"
   version="1.1"
   id="svg3069"
   inkscape:version="1.0 (4035a4fb49, 2020-05-01)"
   sodipodi:docname="11.svg">
  <defs
     id="defs3063" />
  <sodipodi:namedview
     id="base"
     pagecolor="#ffffff"
     bordercolor="#666666"
     borderopacity="1.0"
     inkscape:pageopacity="0.0"
     inkscape:pageshadow="2"
     inkscape:zoom="0.35"
     inkscape:cx="-555.71429"
     inkscape:cy="560"
     inkscape:document-units="mm"
     inkscape:current-layer="layer1"
     inkscape:document-rotation="0"
     showgrid="false"
     inkscape:window-width="1920"
     inkscape:window-height="1027"
     inkscape:window-x="-8"
     inkscape:window-y="-8"
     inkscape:window-maximized="1" />
  <metadata
     id="metadata3066">
    <rdf:RDF>
      <cc:Work
         rdf:about="">
        <dc:format>image/svg+xml</dc:format>
        <dc:type
           rdf:resource="http://purl.org/dc/dcmitype/StillImage" />
        <dc:title></dc:title>
      </cc:Work>
    </rdf:RDF>
  </metadata>
  <g
     inkscape:label="Layer 1"
     inkscape:groupmode="layer"
     id="layer1">
    <path
       d="m 99.890993,1.9506665 a 9.9999998,9.9999998 0 0 0 -0.03845,0 9.9999998,9.9999998 0 0 0 -0.01058,0 9.9999998,9.9999998 0 0 0 -0.145344,0.004 9.9999998,9.9999998 0 0 0 -0.0035,0 9.9999998,9.9999998 0 0 0 -0.0141,0 9.9999998,9.9999998 0 0 0 -0.132292,0.005 9.9999998,9.9999998 0 0 0 -0.01058,0 9.9999998,9.9999998 0 0 0 -0.11571,0.006 9.9999998,9.9999998 0 0 0 -0.157692,0.0102 9.9999998,9.9999998 0 0 0 -0.09913,0.007 9.9999998,9.9999998 0 0 0 -0.09948,0.009 9.9999998,9.9999998 0 0 0 -0.157691,0.0159 9.9999998,9.9999998 0 0 0 -0.156279,0.0187 9.9999998,9.9999998 0 0 0 -0.126296,0.0166 9.9999998,9.9999998 0 0 0 -0.142521,0.0208 9.9999998,9.9999998 0 0 0 -0.110773,0.0173 9.9999998,9.9999998 0 0 0 -0.06209,0.0102 9.9999998,9.9999998 0 0 0 -0.116416,0.0208 9.9999998,9.9999998 0 0 0 -0.02822,0.006 9.9999998,9.9999998 0 0 0 -0.149579,0.0289 9.9999998,9.9999998 0 0 0 -0.109712,0.0226 9.9999998,9.9999998 0 0 0 -0.06244,0.0138 9.9999998,9.9999998 0 0 0 -0.09948,0.0226 9.9999998,9.9999998 0 0 0 -0.05574,0.013 9.9999998,9.9999998 0 0 0 -0.05715,0.0138 9.9999998,9.9999998 0 0 0 -0.110067,0.0268 9.9999998,9.9999998 0 0 0 -0.03175,0.008 9.9999998,9.9999998 0 0 0 -0.129823,0.0346 9.9999998,9.9999998 0 0 0 -0.142169,0.0393 9.9999998,9.9999998 0 0 0 -0.04127,0.0123 9.9999998,9.9999998 0 0 0 -0.118533,0.0358 9.9999998,9.9999998 0 0 0 -0.142523,0.0448 9.9999998,9.9999998 0 0 0 -0.07726,0.0254 9.9999998,9.9999998 0 0 0 -0.0441,0.0145 9.9999998,9.9999998 0 0 0 -0.07973,0.0275 9.9999998,9.9999998 0 0 0 -0.104069,0.0372 9.9999998,9.9999998 0 0 0 -0.12841,0.0468 9.9999998,9.9999998 0 0 0 -0.08749,0.0339 9.9999998,9.9999998 0 0 0 -0.05856,0.0226 9.9999998,9.9999998 0 0 0 -0.07232,0.0289 9.9999998,9.9999998 0 0 0 -0.07232,0.0289 9.9999998,9.9999998 0 0 0 -0.02469,0.01 9.9999998,9.9999998 0 0 0 -0.106892,0.0455 9.9999998,9.9999998 0 0 0 -0.14464,0.0634 9.9999998,9.9999998 0 0 0 -0.136525,0.062 9.9999998,9.9999998 0 0 0 -0.01058,0.006 9.9999998,9.9999998 0 0 0 -0.07373,0.0346 9.9999998,9.9999998 0 0 0 -0.101952,0.0496 9.9999998,9.9999998 0 0 0 -0.02822,0.013 9.9999998,9.9999998 0 0 0 -0.08431,0.0427 9.9999998,9.9999998 0 0 0 -0.04516,0.0226 9.9999998,9.9999998 0 0 0 -0.03598,0.0187 9.9999998,9.9999998 0 0 0 -0.108302,0.0565 9.9999998,9.9999998 0 0 0 -0.06809,0.0372 9.9999998,9.9999998 0 0 0 -0.06279,0.0346 9.9999998,9.9999998 0 0 0 -0.05362,0.0303 9.9999998,9.9999998 0 0 0 -0.09666,0.0537 9.9999998,9.9999998 0 0 0 -0.0071,0.006 9.9999998,9.9999998 0 0 0 -0.129468,0.0765 9.9999998,9.9999998 0 0 0 -0.131585,0.0799 9.9999998,9.9999998 0 0 0 -0.0141,0.008 9.9999998,9.9999998 0 0 0 -0.12065,0.0758 9.9999998,9.9999998 0 0 0 0,0.004 9.9999998,9.9999998 0 0 0 -0.106891,0.0696 9.9999998,9.9999998 0 0 0 -0.02469,0.0166 9.9999998,9.9999998 0 0 0 -0.106185,0.0717 9.9999998,9.9999998 0 0 0 -0.08255,0.0572 9.9999998,9.9999998 0 0 0 -0.04692,0.0325 9.9999998,9.9999998 0 0 0 -0.02469,0.018 9.9999998,9.9999998 0 0 0 -0.106185,0.0765 9.9999998,9.9999998 0 0 0 -0.05574,0.0413 9.9999998,9.9999998 0 0 0 -0.09172,0.0675 9.9999998,9.9999998 0 0 0 -0.100542,0.0779 9.9999998,9.9999998 0 0 0 -0.06597,0.0524 9.9999998,9.9999998 0 0 0 -0.05786,0.0455 9.9999998,9.9999998 0 0 0 -0.02469,0.0194 9.9999998,9.9999998 0 0 0 -0.122061,0.0999 9.9999998,9.9999998 0 0 0 -0.09772,0.0827 9.9999998,9.9999998 0 0 0 -0.02117,0.0201 9.9999998,9.9999998 0 0 0 -0.09666,0.0841 9.9999998,9.9999998 0 0 0 -0.02117,0.0201 9.9999998,9.9999998 0 0 0 -0.117124,0.10608 9.9999998,9.9999998 0 0 0 -0.09948,0.0923 9.9999998,9.9999998 0 0 0 -0.01765,0.0152 9.9999998,9.9999998 0 0 0 -0.09172,0.0889 9.9999998,9.9999998 0 0 0 -0.09102,0.0896 9.9999998,9.9999998 0 0 0 -0.02469,0.0254 9.9999998,9.9999998 0 0 0 -0.102658,0.10545 9.9999998,9.9999998 0 0 0 -0.0035,0.005 9.9999998,9.9999998 0 0 0 -0.07867,0.0827 9.9999998,9.9999998 0 0 0 -0.03528,0.0365 9.9999998,9.9999998 0 0 0 -0.09102,0.0992 9.9999998,9.9999998 0 0 0 -0.0141,0.0145 9.9999998,9.9999998 0 0 0 -0.06703,0.0751 9.9999998,9.9999998 0 0 0 -0.04127,0.0462 9.9999998,9.9999998 0 0 0 -0.0141,0.0159 9.9999998,9.9999998 0 0 0 -0.08255,0.0972 9.9999998,9.9999998 0 0 0 -0.09878,0.1185 9.9999998,9.9999998 0 0 0 -0.0035,0.005 9.9999998,9.9999998 0 0 0 -0.01765,0.0215 9.9999998,9.9999998 0 0 0 -0.08008,0.0992 9.9999998,9.9999998 0 0 0 -0.08326,0.10608 9.9999998,9.9999998 0 0 0 -0.02469,0.0325 9.9999998,9.9999998 0 0 0 -0.02117,0.0282 9.9999998,9.9999998 0 0 0 -0.08114,0.1082 9.9999998,9.9999998 0 0 0 -0.09313,0.12746 9.9999998,9.9999998 0 0 0 -0.08467,0.11987 9.9999998,9.9999998 0 0 0 -0.01765,0.0275 9.9999998,9.9999998 0 0 0 -0.07655,0.1123 9.9999998,9.9999998 0 0 0 -0.08043,0.12266 9.9999998,9.9999998 0 0 0 -0.01765,0.0275 9.9999998,9.9999998 0 0 0 -0.07303,0.11507 9.9999998,9.9999998 0 0 0 -0.08255,0.13434 9.9999998,9.9999998 0 0 0 -0.07585,0.12817 9.9999998,9.9999998 0 0 0 -0.0035,0.007 9.9999998,9.9999998 0 0 0 -0.0635,0.11095 9.9999998,9.9999998 0 0 0 -0.05927,0.10745 9.9999998,9.9999998 0 0 0 -0.02469,0.0462 9.9999998,9.9999998 0 0 0 -0.0071,0.0109 9.9999998,9.9999998 0 0 0 -0.05997,0.11303 9.9999998,9.9999998 0 0 0 -0.07232,0.14055 9.9999998,9.9999998 0 0 0 -0.02117,0.04 9.9999998,9.9999998 0 0 0 -0.01058,0.024 L 6.379833,178.59623 a 10.001,10.001 0 0 0 8.96267,14.43496 H 184.67302 a 10.001,10.001 0 0 0 8.96267,-14.43496 L 108.98349,7.5382565 a 9.9999998,9.9999998 0 0 0 -0.0557,-0.11091 9.9999998,9.9999998 0 0 0 -0.0141,-0.0303 9.9999998,9.9999998 0 0 0 -0.0141,-0.0268 9.9999998,9.9999998 0 0 0 -0.0586,-0.113 9.9999998,9.9999998 0 0 0 -0.0141,-0.0268 9.9999998,9.9999998 0 0 0 -0.0614,-0.11233 9.9999998,9.9999998 0 0 0 -0.0141,-0.0261 9.9999998,9.9999998 0 0 0 -0.0624,-0.11161 9.9999998,9.9999998 0 0 0 -0.0141,-0.0261 9.9999998,9.9999998 0 0 0 -0.004,-0.006 9.9999998,9.9999998 0 0 0 -0.0765,-0.12955 9.9999998,9.9999998 0 0 0 -0.0663,-0.10957 9.9999998,9.9999998 0 0 0 -0.0141,-0.0254 9.9999998,9.9999998 0 0 0 -0.0677,-0.1082 9.9999998,9.9999998 0 0 0 -0.0177,-0.0254 9.9999998,9.9999998 0 0 0 -0.0695,-0.10682 9.9999998,9.9999998 0 0 0 -0.0176,-0.0254 9.9999998,9.9999998 0 0 0 -0.0716,-0.10611 9.9999998,9.9999998 0 0 0 -0.0572,-0.0827 9.9999998,9.9999998 0 0 0 -0.0317,-0.0468 9.9999998,9.9999998 0 0 0 -0.0177,-0.0247 9.9999998,9.9999998 0 0 0 -0.0744,-0.10336 9.9999998,9.9999998 0 0 0 -0.0177,-0.0247 9.9999998,9.9999998 0 0 0 -0.0247,-0.0339 9.9999998,9.9999998 0 0 0 -0.0674,-0.0917 9.9999998,9.9999998 0 0 0 -0.078,-0.10058 9.9999998,9.9999998 0 0 0 -0.0177,-0.024 9.9999998,9.9999998 0 0 0 -0.0794,-0.0999 9.9999998,9.9999998 0 0 0 -0.0176,-0.0233 9.9999998,9.9999998 0 0 0 -0.0998,-0.12196 9.9999998,9.9999998 0 0 0 -0.0825,-0.0978 9.9999998,9.9999998 0 0 0 -0.0212,-0.0226 9.9999998,9.9999998 0 0 0 -0.084,-0.0965 9.9999998,9.9999998 0 0 0 -0.0212,-0.0222 9.9999998,9.9999998 0 0 0 -0.10618,-0.11715 9.9999998,9.9999998 0 0 0 -0.0868,-0.0937 9.9999998,9.9999998 0 0 0 -0.0212,-0.0222 9.9999998,9.9999998 0 0 0 -0.0889,-0.0916 9.9999998,9.9999998 0 0 0 -0.0212,-0.0222 9.9999998,9.9999998 0 0 0 -0.0896,-0.0903 9.9999998,9.9999998 0 0 0 -0.0212,-0.0215 9.9999998,9.9999998 0 0 0 -0.0917,-0.0889 9.9999998,9.9999998 0 0 0 -0.0212,-0.0215 9.9999998,9.9999998 0 0 0 -0.0921,-0.0875 9.9999998,9.9999998 0 0 0 -0.0212,-0.0208 9.9999998,9.9999998 0 0 0 -0.0942,-0.0861 9.9999998,9.9999998 0 0 0 -0.0212,-0.0208 9.9999998,9.9999998 0 0 0 -0.0949,-0.0848 9.9999998,9.9999998 0 0 0 -0.0247,-0.0201 9.9999998,9.9999998 0 0 0 -0.097,-0.0827 9.9999998,9.9999998 0 0 0 -0.11853,-0.0985 9.9999998,9.9999998 0 0 0 0,-0.004 9.9999998,9.9999998 0 0 0 -0.0247,-0.0194 9.9999998,9.9999998 0 0 0 -0.0995,-0.0799 9.9999998,9.9999998 0 0 0 -0.10584,-0.0834 9.9999998,9.9999998 0 0 0 -0.0176,-0.0145 9.9999998,9.9999998 0 0 0 -0.0247,-0.018 9.9999998,9.9999998 0 0 0 -0.0177,-0.0138 9.9999998,9.9999998 0 0 0 -0.1083,-0.0813 9.9999998,9.9999998 0 0 0 -0.12735,-0.093 9.9999998,9.9999998 0 0 0 -0.10407,-0.0737 9.9999998,9.9999998 0 0 0 -0.0247,-0.0173 9.9999998,9.9999998 0 0 0 -0.0176,-0.0123 9.9999998,9.9999998 0 0 0 -0.11253,-0.0765 9.9999998,9.9999998 0 0 0 -0.10583,-0.0703 9.9999998,9.9999998 0 0 0 -0.0247,-0.0166 9.9999998,9.9999998 0 0 0 -0.0176,-0.0116 9.9999998,9.9999998 0 0 0 -0.11501,-0.0731 9.9999998,9.9999998 0 0 0 -0.13441,-0.0827 9.9999998,9.9999998 0 0 0 -0.10971,-0.0655 9.9999998,9.9999998 0 0 0 -0.0247,-0.0152 9.9999998,9.9999998 0 0 0 -0.11112,-0.0634 9.9999998,9.9999998 0 0 0 -0.10725,-0.0593 9.9999998,9.9999998 0 0 0 -0.0318,-0.0173 9.9999998,9.9999998 0 0 0 -0.0282,-0.0145 9.9999998,9.9999998 0 0 0 -0.11324,-0.06 9.9999998,9.9999998 0 0 0 -0.1404,-0.0723 9.9999998,9.9999998 0 0 0 -0.0282,-0.0138 9.9999998,9.9999998 0 0 0 -0.11183,-0.0544 9.9999998,9.9999998 0 0 0 -0.0318,-0.0152 9.9999998,9.9999998 0 0 0 -0.037,-0.018 9.9999998,9.9999998 0 0 0 -0.10548,-0.0489 9.9999998,9.9999998 0 0 0 -0.11007,-0.0503 9.9999998,9.9999998 0 0 0 -0.0353,-0.0152 9.9999998,9.9999998 0 0 0 -0.0381,-0.0166 9.9999998,9.9999998 0 0 0 -0.0177,-0.007 9.9999998,9.9999998 0 0 0 -0.12771,-0.0551 9.9999998,9.9999998 0 0 0 -0.10724,-0.0441 9.9999998,9.9999998 0 0 0 -0.0388,-0.0159 9.9999998,9.9999998 0 0 0 -0.0399,-0.0159 9.9999998,9.9999998 0 0 0 -0.10759,-0.0413 9.9999998,9.9999998 0 0 0 -0.10866,-0.0414 9.9999998,9.9999998 0 0 0 -0.007,-0.004 9.9999998,9.9999998 0 0 0 -0.13511,-0.0489 9.9999998,9.9999998 0 0 0 -0.007,-0.004 9.9999998,9.9999998 0 0 0 -0.0395,-0.0138 9.9999998,9.9999998 0 0 0 -0.11007,-0.0372 9.9999998,9.9999998 0 0 0 -0.0399,-0.013 9.9999998,9.9999998 0 0 0 -0.11042,-0.0358 9.9999998,9.9999998 0 0 0 -0.0399,-0.0124 9.9999998,9.9999998 0 0 0 -0.11112,-0.0339 9.9999998,9.9999998 0 0 0 -0.15134,-0.0441 9.9999998,9.9999998 0 0 0 -0.11042,-0.0303 9.9999998,9.9999998 0 0 0 -0.0825,-0.0222 9.9999998,9.9999998 0 0 0 -0.11289,-0.0282 9.9999998,9.9999998 0 0 0 -0.10548,-0.0254 9.9999998,9.9999998 0 0 0 -0.0889,-0.0208 9.9999998,9.9999998 0 0 0 -0.15452,-0.0339 9.9999998,9.9999998 0 0 0 -0.15416,-0.031 9.9999998,9.9999998 0 0 0 -0.1143,-0.0215 9.9999998,9.9999998 0 0 0 -0.0416,-0.007 9.9999998,9.9999998 0 0 0 -0.0282,-0.005 9.9999998,9.9999998 0 0 0 -0.12594,-0.0215 9.9999998,9.9999998 0 0 0 -0.1143,-0.018 9.9999998,9.9999998 0 0 0 -0.0413,-0.006 9.9999998,9.9999998 0 0 0 -0.11536,-0.0159 9.9999998,9.9999998 0 0 0 -0.0106,0 9.9999998,9.9999998 0 0 0 -0.13088,-0.0159 9.9999998,9.9999998 0 0 0 -0.0176,-0.004 9.9999998,9.9999998 0 0 0 -0.0413,-0.005 9.9999998,9.9999998 0 0 0 -0.11571,-0.0123 9.9999998,9.9999998 0 0 0 -0.0413,-0.004 9.9999998,9.9999998 0 0 0 -0.11607,-0.0102 9.9999998,9.9999998 0 0 0 -0.0413,-0.004 9.9999998,9.9999998 0 0 0 -0.11642,-0.009 9.9999998,9.9999998 0 0 0 -0.0413,-0.004 9.9999998,9.9999998 0 0 0 -0.11571,-0.007 9.9999998,9.9999998 0 0 0 -0.042,-0.004 9.9999998,9.9999998 0 0 0 -0.11571,-0.005 9.9999998,9.9999998 0 0 0 -0.042,0 9.9999998,9.9999998 0 0 0 -0.0212,0 9.9999998,9.9999998 0 0 0 -0.12558,-0.004 9.9999998,9.9999998 0 0 0 -0.0106,0 9.9999998,9.9999998 0 0 0 -0.0318,0 9.9999998,9.9999998 0 0 0 -0.12524,0 9.9999998,9.9999998 0 0 0 -0.116419,0 z M 99.992238,34.497214 168.55107,173.03551 H 31.433403 Z m -84.665255,2.476332 a 10.001,10.001 0 0 0 -8.96267,14.43496 l 84.6522,171.057974 0.0141,0.0268 a 9.9999998,9.9999998 0 0 0 0.04269,0.084 9.9999998,9.9999998 0 0 0 0.02117,0.0455 9.9999998,9.9999998 0 0 0 0.01765,0.0358 9.9999998,9.9999998 0 0 0 0.05644,0.10819 9.9999998,9.9999998 0 0 0 0.03739,0.0682 9.9999998,9.9999998 0 0 0 0.03528,0.0627 9.9999998,9.9999998 0 0 0 0.03175,0.0538 9.9999998,9.9999998 0 0 0 0.05397,0.0965 9.9999998,9.9999998 0 0 0 0.0071,0.009 9.9999998,9.9999998 0 0 0 0.07655,0.12954 9.9999998,9.9999998 0 0 0 0.08008,0.13159 9.9999998,9.9999998 0 0 0 0.0071,0.0138 9.9999998,9.9999998 0 0 0 0.07585,0.12058 9.9999998,9.9999998 0 0 0 0,0.004 9.9999998,9.9999998 0 0 0 0.0695,0.10683 9.9999998,9.9999998 0 0 0 0.01765,0.0254 9.9999998,9.9999998 0 0 0 0.07162,0.10611 9.9999998,9.9999998 0 0 0 0.05715,0.0827 9.9999998,9.9999998 0 0 0 0.03175,0.0469 9.9999998,9.9999998 0 0 0 0.01765,0.0247 9.9999998,9.9999998 0 0 0 0.0762,0.10612 9.9999998,9.9999998 0 0 0 0.04163,0.0558 9.9999998,9.9999998 0 0 0 0.06738,0.0917 9.9999998,9.9999998 0 0 0 0.07797,0.10058 9.9999998,9.9999998 0 0 0 0.05221,0.0661 9.9999998,9.9999998 0 0 0 0.04551,0.0579 9.9999998,9.9999998 0 0 0 0.02117,0.0233 9.9999998,9.9999998 0 0 0 0.09984,0.12195 9.9999998,9.9999998 0 0 0 0.08255,0.0978 9.9999998,9.9999998 0 0 0 0.02117,0.0226 9.9999998,9.9999998 0 0 0 0.08396,0.0965 9.9999998,9.9999998 0 0 0 0.02117,0.0222 9.9999998,9.9999998 0 0 0 0.106186,0.11716 9.9999998,9.9999998 0 0 0 0.09208,0.0992 9.9999998,9.9999998 0 0 0 0.0141,0.0166 9.9999998,9.9999998 0 0 0 0.0889,0.0916 9.9999998,9.9999998 0 0 0 0.0896,0.091 9.9999998,9.9999998 0 0 0 0.02468,0.0254 9.9999998,9.9999998 0 0 0 0.105479,0.10266 9.9999998,9.9999998 0 0 0 0.0035,0.005 9.9999998,9.9999998 0 0 0 0.08255,0.0786 9.9999998,9.9999998 0 0 0 0.03669,0.0346 9.9999998,9.9999998 0 0 0 0.09913,0.091 9.9999998,9.9999998 0 0 0 0.0141,0.0138 9.9999998,9.9999998 0 0 0 0.07514,0.0668 9.9999998,9.9999998 0 0 0 0.04621,0.0413 9.9999998,9.9999998 0 0 0 0.01765,0.0138 9.9999998,9.9999998 0 0 0 0.09701,0.0827 9.9999998,9.9999998 0 0 0 0.118533,0.0985 9.9999998,9.9999998 0 0 0 0.0035,0.004 9.9999998,9.9999998 0 0 0 0.02117,0.018 9.9999998,9.9999998 0 0 0 0.09948,0.0799 9.9999998,9.9999998 0 0 0 0.105834,0.0834 9.9999998,9.9999998 0 0 0 0.03175,0.0247 9.9999998,9.9999998 0 0 0 0.02822,0.0215 9.9999998,9.9999998 0 0 0 0.108305,0.0813 9.9999998,9.9999998 0 0 0 0.127352,0.093 9.9999998,9.9999998 0 0 0 0.119943,0.0847 9.9999998,9.9999998 0 0 0 0.02822,0.0187 9.9999998,9.9999998 0 0 0 0.112536,0.0765 9.9999998,9.9999998 0 0 0 0.122414,0.0806 9.9999998,9.9999998 0 0 0 0.02822,0.018 9.9999998,9.9999998 0 0 0 0.115004,0.0731 9.9999998,9.9999998 0 0 0 0.134409,0.0827 9.9999998,9.9999998 0 0 0 0.128412,0.0758 9.9999998,9.9999998 0 0 0 0.0071,0.005 9.9999998,9.9999998 0 0 0 0.111125,0.0634 9.9999998,9.9999998 0 0 0 0.107246,0.0593 9.9999998,9.9999998 0 0 0 0.04621,0.0254 9.9999998,9.9999998 0 0 0 0.01058,0.006 9.9999998,9.9999998 0 0 0 0.113242,0.06 9.9999998,9.9999998 0 0 0 0.140407,0.0723 9.9999998,9.9999998 0 0 0 0.03986,0.0201 9.9999998,9.9999998 0 0 0 0.02469,0.0124 9.9999998,9.9999998 0 0 0 0.07444,0.0358 9.9999998,9.9999998 0 0 0 0.03916,0.0194 9.9999998,9.9999998 0 0 0 0.02822,0.0138 9.9999998,9.9999998 0 0 0 0.105481,0.0489 9.9999998,9.9999998 0 0 0 0.110067,0.0503 9.9999998,9.9999998 0 0 0 0.06209,0.0275 9.9999998,9.9999998 0 0 0 0.02822,0.0109 9.9999998,9.9999998 0 0 0 0.127706,0.0551 9.9999998,9.9999998 0 0 0 0.10795,0.0441 9.9999998,9.9999998 0 0 0 0.07867,0.0317 9.9999998,9.9999998 0 0 0 0.107598,0.0413 9.9999998,9.9999998 0 0 0 0.11571,0.0434 9.9999998,9.9999998 0 0 0 0.135115,0.0489 9.9999998,9.9999998 0 0 0 0.01058,0.004 9.9999998,9.9999998 0 0 0 0.09843,0.0339 9.9999998,9.9999998 0 0 0 0.07937,0.0261 9.9999998,9.9999998 0 0 0 0.02469,0.008 9.9999998,9.9999998 0 0 0 0.12206,0.0393 9.9999998,9.9999998 0 0 0 0.01058,0.004 9.9999998,9.9999998 0 0 0 0.111125,0.0339 9.9999998,9.9999998 0 0 0 0.151341,0.0441 9.9999998,9.9999998 0 0 0 0.110421,0.0303 9.9999998,9.9999998 0 0 0 0.06526,0.0173 9.9999998,9.9999998 0 0 0 0.01765,0.005 9.9999998,9.9999998 0 0 0 0.11289,0.0282 9.9999998,9.9999998 0 0 0 0.105479,0.0254 9.9999998,9.9999998 0 0 0 0.0889,0.0208 9.9999998,9.9999998 0 0 0 0.154517,0.0339 9.9999998,9.9999998 0 0 0 0.154164,0.031 9.9999998,9.9999998 0 0 0 0.126294,0.0233 9.9999998,9.9999998 0 0 0 0.05927,0.0102 9.9999998,9.9999998 0 0 0 0.125941,0.0215 9.9999998,9.9999998 0 0 0 0.128765,0.0201 9.9999998,9.9999998 0 0 0 0.111831,0.0159 9.9999998,9.9999998 0 0 0 0.03986,0.006 9.9999998,9.9999998 0 0 0 0.130881,0.0159 9.9999998,9.9999998 0 0 0 0.02469,0.004 9.9999998,9.9999998 0 0 0 0.09948,0.0109 9.9999998,9.9999998 0 0 0 0.06597,0.007 9.9999998,9.9999998 0 0 0 0.09913,0.009 9.9999998,9.9999998 0 0 0 0.04163,0.004 9.9999998,9.9999998 0 0 0 0.08608,0.007 9.9999998,9.9999998 0 0 0 0.0956,0.007 9.9999998,9.9999998 0 0 0 0.06421,0.004 9.9999998,9.9999998 0 0 0 0.09278,0.006 9.9999998,9.9999998 0 0 0 0.01765,0 9.9999998,9.9999998 0 0 0 0.146756,0.006 9.9999998,9.9999998 0 0 0 0.03175,0 9.9999998,9.9999998 0 0 0 0.12559,0.004 9.9999998,9.9999998 0 0 0 0.04339,0 9.9999998,9.9999998 0 0 0 0.125235,0 9.9999998,9.9999998 0 0 0 0.154873,0 9.9999998,9.9999998 0 0 0 0.007,0 9.9999998,9.9999998 0 0 0 0.14534,-0.004 9.9999998,9.9999998 0 0 0 0.004,0 9.9999998,9.9999998 0 0 0 0.0141,0 9.9999998,9.9999998 0 0 0 0.13229,-0.005 9.9999998,9.9999998 0 0 0 0.0106,0 9.9999998,9.9999998 0 0 0 0.11571,-0.006 9.9999998,9.9999998 0 0 0 0.15769,-0.0102 9.9999998,9.9999998 0 0 0 0.0991,-0.007 9.9999998,9.9999998 0 0 0 0.0995,-0.009 9.9999998,9.9999998 0 0 0 0.15769,-0.0159 9.9999998,9.9999998 0 0 0 0.15629,-0.0187 9.9999998,9.9999998 0 0 0 0.115,-0.0152 9.9999998,9.9999998 0 0 0 0.003,0 9.9999998,9.9999998 0 0 0 0.15099,-0.0222 9.9999998,9.9999998 0 0 0 0.0413,-0.006 9.9999998,9.9999998 0 0 0 0.115,-0.0187 9.9999998,9.9999998 0 0 0 0.0406,-0.007 9.9999998,9.9999998 0 0 0 0.11466,-0.0208 9.9999998,9.9999998 0 0 0 0.007,0 9.9999998,9.9999998 0 0 0 0.14958,-0.0289 9.9999998,9.9999998 0 0 0 0.0413,-0.008 9.9999998,9.9999998 0 0 0 0.11394,-0.024 9.9999998,9.9999998 0 0 0 0.0406,-0.009 9.9999998,9.9999998 0 0 0 0.11289,-0.0261 9.9999998,9.9999998 0 0 0 0.0406,-0.01 9.9999998,9.9999998 0 0 0 0.0353,-0.009 9.9999998,9.9999998 0 0 0 0.11007,-0.0268 9.9999998,9.9999998 0 0 0 0.007,-0.004 9.9999998,9.9999998 0 0 0 0.1524,-0.0406 9.9999998,9.9999998 0 0 0 0.14217,-0.0393 9.9999998,9.9999998 0 0 0 0.007,-0.004 9.9999998,9.9999998 0 0 0 0.11112,-0.0332 9.9999998,9.9999998 0 0 0 0.0399,-0.0124 9.9999998,9.9999998 0 0 0 0.14252,-0.0448 9.9999998,9.9999998 0 0 0 0.007,-0.004 9.9999998,9.9999998 0 0 0 0.11007,-0.0365 9.9999998,9.9999998 0 0 0 0.004,0 9.9999998,9.9999998 0 0 0 0.0797,-0.0275 9.9999998,9.9999998 0 0 0 0.10407,-0.0372 9.9999998,9.9999998 0 0 0 0.10971,-0.04 9.9999998,9.9999998 0 0 0 0.0384,-0.0145 9.9999998,9.9999998 0 0 0 0.10901,-0.042 9.9999998,9.9999998 0 0 0 0.0384,-0.0152 9.9999998,9.9999998 0 0 0 0.1083,-0.0434 9.9999998,9.9999998 0 0 0 0.0384,-0.0159 9.9999998,9.9999998 0 0 0 0.1069,-0.0455 9.9999998,9.9999998 0 0 0 0.14463,-0.0634 9.9999998,9.9999998 0 0 0 0.13653,-0.062 9.9999998,9.9999998 0 0 0 0.007,-0.004 9.9999998,9.9999998 0 0 0 0.0374,-0.0173 9.9999998,9.9999998 0 0 0 0.0406,-0.0194 9.9999998,9.9999998 0 0 0 0.10195,-0.0496 9.9999998,9.9999998 0 0 0 0.11112,-0.0558 9.9999998,9.9999998 0 0 0 0.0282,-0.0152 9.9999998,9.9999998 0 0 0 0.0282,-0.0138 9.9999998,9.9999998 0 0 0 0.11289,-0.0586 9.9999998,9.9999998 0 0 0 0.0282,-0.0145 9.9999998,9.9999998 0 0 0 0.11254,-0.0613 9.9999998,9.9999998 0 0 0 0.0247,-0.0145 9.9999998,9.9999998 0 0 0 0.11148,-0.0627 9.9999998,9.9999998 0 0 0 0.0247,-0.0152 9.9999998,9.9999998 0 0 0 0.007,-0.004 9.9999998,9.9999998 0 0 0 0.12947,-0.0765 9.9999998,9.9999998 0 0 0 0.10971,-0.0661 9.9999998,9.9999998 0 0 0 0.0247,-0.0159 9.9999998,9.9999998 0 0 0 0.10831,-0.0676 9.9999998,9.9999998 0 0 0 0.0247,-0.0166 9.9999998,9.9999998 0 0 0 0.10689,-0.0696 9.9999998,9.9999998 0 0 0 0.0247,-0.0166 9.9999998,9.9999998 0 0 0 0.10619,-0.0716 9.9999998,9.9999998 0 0 0 0.0825,-0.0572 9.9999998,9.9999998 0 0 0 0.0469,-0.0325 9.9999998,9.9999998 0 0 0 0.0247,-0.018 9.9999998,9.9999998 0 0 0 0.10336,-0.0744 9.9999998,9.9999998 0 0 0 0.0247,-0.018 9.9999998,9.9999998 0 0 0 0.0353,-0.0254 9.9999998,9.9999998 0 0 0 0.0917,-0.0675 9.9999998,9.9999998 0 0 0 0.10054,-0.0778 9.9999998,9.9999998 0 0 0 0.0247,-0.0187 9.9999998,9.9999998 0 0 0 0.0998,-0.0792 9.9999998,9.9999998 0 0 0 0.0247,-0.0194 9.9999998,9.9999998 0 0 0 0.12206,-0.0999 9.9999998,9.9999998 0 0 0 0.0977,-0.0827 9.9999998,9.9999998 0 0 0 0.0212,-0.0201 9.9999998,9.9999998 0 0 0 0.0967,-0.0841 9.9999998,9.9999998 0 0 0 0.0212,-0.0201 9.9999998,9.9999998 0 0 0 0.11713,-0.10608 9.9999998,9.9999998 0 0 0 0.0938,-0.0868 9.9999998,9.9999998 0 0 0 0.0212,-0.0208 9.9999998,9.9999998 0 0 0 0.0917,-0.0889 9.9999998,9.9999998 0 0 0 0.0212,-0.0215 9.9999998,9.9999998 0 0 0 0.0903,-0.0896 9.9999998,9.9999998 0 0 0 0.0212,-0.0215 9.9999998,9.9999998 0 0 0 0.0889,-0.0916 9.9999998,9.9999998 0 0 0 0.0212,-0.0222 9.9999998,9.9999998 0 0 0 0.0875,-0.0923 9.9999998,9.9999998 0 0 0 0.0212,-0.0222 9.9999998,9.9999998 0 0 0 0.0861,-0.0944 9.9999998,9.9999998 0 0 0 0.0212,-0.0226 9.9999998,9.9999998 0 0 0 0.0847,-0.0951 9.9999998,9.9999998 0 0 0 0.0212,-0.0226 9.9999998,9.9999998 0 0 0 0.0825,-0.0971 9.9999998,9.9999998 0 0 0 0.0988,-0.1185 9.9999998,9.9999998 0 0 0 0,-0.004 9.9999998,9.9999998 0 0 0 0.0212,-0.0233 9.9999998,9.9999998 0 0 0 0.0801,-0.0992 9.9999998,9.9999998 0 0 0 0.0833,-0.10608 9.9999998,9.9999998 0 0 0 0.0141,-0.0187 9.9999998,9.9999998 0 0 0 0.0177,-0.0233 9.9999998,9.9999998 0 0 0 0.0141,-0.0187 9.9999998,9.9999998 0 0 0 0.0811,-0.10819 9.9999998,9.9999998 0 0 0 0.0931,-0.12746 9.9999998,9.9999998 0 0 0 0.0737,-0.10404 9.9999998,9.9999998 0 0 0 0.0177,-0.0247 9.9999998,9.9999998 0 0 0 0.0106,-0.0187 9.9999998,9.9999998 0 0 0 0.0766,-0.11229 9.9999998,9.9999998 0 0 0 0.0702,-0.10611 9.9999998,9.9999998 0 0 0 0.0176,-0.0254 9.9999998,9.9999998 0 0 0 0.0106,-0.0187 9.9999998,9.9999998 0 0 0 0.073,-0.11508 9.9999998,9.9999998 0 0 0 0.0825,-0.13433 9.9999998,9.9999998 0 0 0 0.0656,-0.10958 9.9999998,9.9999998 0 0 0 0.0141,-0.0261 9.9999998,9.9999998 0 0 0 0.0635,-0.11095 9.9999998,9.9999998 0 0 0 0.0593,-0.10746 9.9999998,9.9999998 0 0 0 0.0176,-0.0303 9.9999998,9.9999998 0 0 0 0.0141,-0.0268 9.9999998,9.9999998 0 0 0 0.06,-0.11303 9.9999998,9.9999998 0 0 0 0.0723,-0.14054 9.9999998,9.9999998 0 0 0 0.0141,-0.0268 9.9999998,9.9999998 0 0 0 0.0176,-0.0372 L 193.599,51.408683 a 10.001,10.001 0 0 0 -8.96267,-14.434961 z m 16.10642,19.999499 H 168.55107 L 99.992238,195.51134 Z"
       style="color:#000000;font-style:normal;font-variant:normal;font-weight:normal;font-stretch:normal;font-size:medium;line-height:normal;font-family:sans-serif;font-variant-ligatures:normal;font-variant-position:normal;font-variant-caps:normal;font-variant-numeric:normal;font-variant-alternates:normal;font-variant-east-asian:normal;font-feature-settings:normal;font-variation-settings:normal;text-indent:0;text-align:start;text-decoration:none;text-decoration-line:none;text-decoration-style:solid;text-decoration-color:#000000;letter-spacing:normal;word-spacing:normal;text-transform:none;writing-mode:lr-tb;direction:ltr;text-orientation:mixed;dominant-baseline:auto;baseline-shift:baseline;text-anchor:start;white-space:normal;shape-padding:0;shape-margin:0;inline-size:0;clip-rule:nonzero;display:inline;overflow:visible;visibility:visible;opacity:1;isolation:auto;mix-blend-mode:normal;color-interpolation:sRGB;color-interpolation-filters:linearRGB;solid-color:#000000;solid-opacity:1;vector-effect:none;fill:#000000;fill-opacity:1;fill-rule:nonzero;stroke:none;stroke-width:20;stroke-linecap:round;stroke-linejoin:round;stroke-miterlimit:10;stroke-dasharray:none;stroke-dashoffset:0;stroke-opacity:1;color-rendering:auto;image-rendering:auto;shape-rendering:auto;text-rendering:auto;enable-background:accumulate;stop-color:#000000;stop-opacity:1"
       id="path2920" />
  </g>
</svg>
