<?xml version="1.0" encoding="UTF-8" standalone="no"?>
<svg
   xmlns:dc="http://purl.org/dc/elements/1.1/"
   xmlns:cc="http://creativecommons.org/ns#"
   xmlns:rdf="http://www.w3.org/1999/02/22-rdf-syntax-ns#"
   xmlns:svg="http://www.w3.org/2000/svg"
   xmlns="http://www.w3.org/2000/svg"
   xmlns:sodipodi="http://sodipodi.sourceforge.net/DTD/sodipodi-0.dtd"
   xmlns:inkscape="http://www.inkscape.org/namespaces/inkscape"
   sodipodi:docname="14.svg"
   inkscape:version="1.0 (4035a4fb49, 2020-05-01)"
   id="svg3069"
   version="1.1"
   viewBox="0 0 200 200"
   height="200mm"
   width="200mm">
  <defs
     id="defs3063" />
  <sodipodi:namedview
     inkscape:window-maximized="1"
     inkscape:window-y="-8"
     inkscape:window-x="-8"
     inkscape:window-height="1027"
     inkscape:window-width="1920"
     showgrid="false"
     inkscape:document-rotation="0"
     inkscape:current-layer="layer1"
     inkscape:document-units="mm"
     inkscape:cy="560"
     inkscape:cx="-150"
     inkscape:zoom="0.35"
     inkscape:pageshadow="2"
     inkscape:pageopacity="0.0"
     borderopacity="1.0"
     bordercolor="#666666"
     pagecolor="#ffffff"
     id="base" />
  <metadata
     id="metadata3066">
    <rdf:RDF>
      <cc:Work
         rdf:about="">
        <dc:format>image/svg+xml</dc:format>
        <dc:type
           rdf:resource="http://purl.org/dc/dcmitype/StillImage" />
        <dc:title></dc:title>
      </cc:Work>
    </rdf:RDF>
  </metadata>
  <g
     id="layer1"
     inkscape:groupmode="layer"
     inkscape:label="Layer 1">
    <path
       style="color:#000000;font-style:normal;font-variant:normal;font-weight:normal;font-stretch:normal;font-size:medium;line-height:normal;font-family:sans-serif;font-variant-ligatures:normal;font-variant-position:normal;font-variant-caps:normal;font-variant-numeric:normal;font-variant-alternates:normal;font-variant-east-asian:normal;font-feature-settings:normal;font-variation-settings:normal;text-indent:0;text-align:start;text-decoration:none;text-decoration-line:none;text-decoration-style:solid;text-decoration-color:#000000;letter-spacing:normal;word-spacing:normal;text-transform:none;writing-mode:lr-tb;direction:ltr;text-orientation:mixed;dominant-baseline:auto;baseline-shift:baseline;text-anchor:start;white-space:normal;shape-padding:0;shape-margin:0;inline-size:0;clip-rule:nonzero;display:inline;overflow:visible;visibility:visible;opacity:1;isolation:auto;mix-blend-mode:normal;color-interpolation:sRGB;color-interpolation-filters:linearRGB;solid-color:#000000;solid-opacity:1;vector-effect:none;fill:#000000;fill-opacity:1;fill-rule:nonzero;stroke:none;stroke-width:20;stroke-linecap:round;stroke-linejoin:round;stroke-miterlimit:10;stroke-dasharray:none;stroke-dashoffset:0;stroke-opacity:1;color-rendering:auto;image-rendering:auto;shape-rendering:auto;text-rendering:auto;enable-background:accumulate;stop-color:#000000;stop-opacity:1"
       d="m 99.896952,27.135044 a 9.9999998,9.9999998 0 0 0 -0.02963,0 9.9999998,9.9999998 0 0 0 -0.128165,0.0035 9.9999998,9.9999998 0 0 0 -0.104034,0.0035 9.9999998,9.9999998 0 0 0 -0.08961,0.0035 9.9999998,9.9999998 0 0 0 -0.121955,0.0063 9.9999998,9.9999998 0 0 0 -0.157763,0.01023 9.9999998,9.9999998 0 0 0 -0.08752,0.0071 9.9999998,9.9999998 0 0 0 -0.110244,0.0095 9.9999998,9.9999998 0 0 0 -0.157091,0.01588 9.9999998,9.9999998 0 0 0 -0.130209,0.01517 9.9999998,9.9999998 0 0 0 -0.142629,0.0187 9.9999998,9.9999998 0 0 0 -0.119203,0.01729 9.9999998,9.9999998 0 0 0 -0.05856,0.0088 9.9999998,9.9999998 0 0 0 -0.05581,0.0088 9.9999998,9.9999998 0 0 0 -0.104741,0.01729 9.9999998,9.9999998 0 0 0 -0.05514,0.0095 9.9999998,9.9999998 0 0 0 -0.09783,0.01799 9.9999998,9.9999998 0 0 0 -0.0696,0.01305 9.9999998,9.9999998 0 0 0 -0.09024,0.0187 9.9999998,9.9999998 0 0 0 -0.03789,0.0074 9.9999998,9.9999998 0 0 0 -0.117829,0.0254 9.9999998,9.9999998 0 0 0 -0.03584,0.0081 9.9999998,9.9999998 0 0 0 -0.128164,0.02963 9.9999998,9.9999998 0 0 0 -0.153635,0.03792 9.9999998,9.9999998 0 0 0 -0.152295,0.04064 9.9999998,9.9999998 0 0 0 -0.112995,0.03175 9.9999998,9.9999998 0 0 0 -0.07786,0.02293 9.9999998,9.9999998 0 0 0 -0.11229,0.03387 9.9999998,9.9999998 0 0 0 -0.135749,0.04272 9.9999998,9.9999998 0 0 0 -0.04202,0.01376 9.9999998,9.9999998 0 0 0 -0.118534,0.0393 9.9999998,9.9999998 0 0 0 -0.02611,0.0088 9.9999998,9.9999998 0 0 0 -0.106114,0.03718 9.9999998,9.9999998 0 0 0 -0.07373,0.02681 9.9999998,9.9999998 0 0 0 -0.09095,0.03387 9.9999998,9.9999998 0 0 0 -0.03387,0.01305 9.9999998,9.9999998 0 0 0 -0.08957,0.03457 9.9999998,9.9999998 0 0 0 -0.02822,0.01094 9.9999998,9.9999998 0 0 0 -0.141253,0.05789 9.9999998,9.9999998 0 0 0 -0.03651,0.01517 9.9999998,9.9999998 0 0 0 -0.08682,0.03655 9.9999998,9.9999998 0 0 0 -0.02752,0.01164 9.9999998,9.9999998 0 0 0 -0.131587,0.05856 9.9999998,9.9999998 0 0 0 -0.06752,0.03104 9.9999998,9.9999998 0 0 0 -0.0586,0.02681 9.9999998,9.9999998 0 0 0 -0.109537,0.05239 9.9999998,9.9999998 0 0 0 -0.04547,0.02223 9.9999998,9.9999998 0 0 0 -0.01728,0.0081 9.9999998,9.9999998 0 0 0 -0.06477,0.03175 9.9999998,9.9999998 0 0 0 -0.03722,0.0187 9.9999998,9.9999998 0 0 0 -0.01093,0.0056 9.9999998,9.9999998 0 0 0 -0.132291,0.0689 9.9999998,9.9999998 0 0 0 -0.137795,0.07373 9.9999998,9.9999998 0 0 0 -0.09853,0.05443 9.9999998,9.9999998 0 0 0 -0.137126,0.07853 9.9999998,9.9999998 0 0 0 -0.07786,0.04547 9.9999998,9.9999998 0 0 0 -0.09712,0.0586 9.9999998,9.9999998 0 0 0 -0.11303,0.06957 9.9999998,9.9999998 0 0 0 -0.112995,0.07165 9.9999998,9.9999998 0 0 0 -0.0042,0.0035 9.9999998,9.9999998 0 0 0 -0.09645,0.06406 9.9999998,9.9999998 0 0 0 -0.05101,0.03387 9.9999998,9.9999998 0 0 0 -0.06269,0.04272 9.9999998,9.9999998 0 0 0 -0.05098,0.03457 9.9999998,9.9999998 0 0 0 -0.03722,0.02611 9.9999998,9.9999998 0 0 0 -0.128833,0.09162 9.9999998,9.9999998 0 0 0 -0.127495,0.09373 9.9999998,9.9999998 0 0 0 -0.108831,0.08198 9.9999998,9.9999998 0 0 0 -0.07994,0.06269 9.9999998,9.9999998 0 0 0 -0.03528,0.02752 9.9999998,9.9999998 0 0 0 -0.06339,0.05031 9.9999998,9.9999998 0 0 0 -0.0696,0.05718 9.9999998,9.9999998 0 0 0 -0.01587,0.01235 9.9999998,9.9999998 0 0 0 -0.08611,0.07235 9.9999998,9.9999998 0 0 0 -0.03457,0.02893 9.9999998,9.9999998 0 0 0 -0.08544,0.07373 9.9999998,9.9999998 0 0 0 -0.108868,0.09578 9.9999998,9.9999998 0 0 0 -0.01659,0.01517 9.9999998,9.9999998 0 0 0 -0.06611,0.06064 9.9999998,9.9999998 0 0 0 -0.0641,0.05927 9.9999998,9.9999998 0 0 0 -0.06202,0.05856 9.9999998,9.9999998 0 0 0 -0.04272,0.04064 9.9999998,9.9999998 0 0 0 -0.05443,0.05239 9.9999998,9.9999998 0 0 0 -0.07232,0.07094 9.9999998,9.9999998 0 0 0 -0.03997,0.04068 9.9999998,9.9999998 0 0 0 -0.05927,0.05994 9.9999998,9.9999998 0 0 0 -0.05927,0.06131 9.9999998,9.9999998 0 0 0 -0.03856,0.03997 9.9999998,9.9999998 0 0 0 -0.03105,0.03316 9.9999998,9.9999998 0 0 0 -0.10749,0.115782 9.9999998,9.9999998 0 0 0 -0.07511,0.08336 9.9999998,9.9999998 0 0 0 -0.03034,0.03457 9.9999998,9.9999998 0 0 0 -0.104069,0.119168 9.9999998,9.9999998 0 0 0 -0.07232,0.08544 9.9999998,9.9999998 0 0 0 -0.02893,0.03528 9.9999998,9.9999998 0 0 0 -0.09991,0.122661 9.9999998,9.9999998 0 0 0 -0.09783,0.123331 9.9999998,9.9999998 0 0 0 -0.09578,0.126083 9.9999998,9.9999998 0 0 0 -0.07923,0.106115 9.9999998,9.9999998 0 0 0 -0.04755,0.06615 9.9999998,9.9999998 0 0 0 -0.0489,0.0689 9.9999998,9.9999998 0 0 0 -0.03034,0.04205 9.9999998,9.9999998 0 0 0 -0.04409,0.06406 9.9999998,9.9999998 0 0 0 -0.0254,0.03789 9.9999998,9.9999998 0 0 0 -0.06407,0.09511 9.9999998,9.9999998 0 0 0 -0.05306,0.08128 9.9999998,9.9999998 0 0 0 -0.05648,0.08752 9.9999998,9.9999998 0 0 0 -0.0834,0.133668 9.9999998,9.9999998 0 0 0 -0.06819,0.112995 9.9999998,9.9999998 0 0 0 -0.06202,0.10541 9.9999998,9.9999998 0 0 0 -0.01164,0.02011 9.9999998,9.9999998 0 0 0 -0.0503,0.08957 9.9999998,9.9999998 0 0 0 -0.03584,0.06339 9.9999998,9.9999998 0 0 0 -0.04131,0.07648 9.9999998,9.9999998 0 0 0 -0.02963,0.0551 9.9999998,9.9999998 0 0 0 -0.04135,0.07786 9.9999998,9.9999998 0 0 0 -0.03722,0.07165 9.9999998,9.9999998 0 0 0 -0.04064,0.08061 9.9999998,9.9999998 0 0 0 -0.01799,0.03655 L 28.19113,158.39283 a 10.001,10.001 0 0 0 8.944151,14.47214 H 162.86471 a 10.001,10.001 0 0 0 8.94416,-14.47214 L 108.94415,32.663354 a 9.9999998,9.9999998 0 0 0 -0.0187,-0.03718 9.9999998,9.9999998 0 0 0 -0.003,-0.0035 9.9999998,9.9999998 0 0 0 -0.004,-0.0074 9.9999998,9.9999998 0 0 0 -0.0689,-0.132291 9.9999998,9.9999998 0 0 0 -0.0737,-0.137795 9.9999998,9.9999998 0 0 0 -0.0544,-0.09853 9.9999998,9.9999998 0 0 0 -0.0785,-0.137125 9.9999998,9.9999998 0 0 0 -0.0229,-0.03926 9.9999998,9.9999998 0 0 0 -0.0229,-0.03859 9.9999998,9.9999998 0 0 0 -0.0586,-0.09716 9.9999998,9.9999998 0 0 0 -0.0586,-0.09578 9.9999998,9.9999998 0 0 0 -0.024,-0.03856 9.9999998,9.9999998 0 0 0 -0.0606,-0.0944 9.9999998,9.9999998 0 0 0 -0.0247,-0.03859 9.9999998,9.9999998 0 0 0 -0.0282,-0.04272 9.9999998,9.9999998 0 0 0 -0.0593,-0.08819 9.9999998,9.9999998 0 0 0 -0.0896,-0.13021 9.9999998,9.9999998 0 0 0 -0.0916,-0.128835 9.9999998,9.9999998 0 0 0 -0.0937,-0.127493 9.9999998,9.9999998 0 0 0 -0.0675,-0.08957 9.9999998,9.9999998 0 0 0 -0.0275,-0.03581 9.9999998,9.9999998 0 0 0 -0.0696,-0.0889 9.9999998,9.9999998 0 0 0 -0.0282,-0.03584 9.9999998,9.9999998 0 0 0 -0.0703,-0.08749 9.9999998,9.9999998 0 0 0 -0.0289,-0.03528 9.9999998,9.9999998 0 0 0 -0.0724,-0.08615 9.9999998,9.9999998 0 0 0 -0.0289,-0.03457 9.9999998,9.9999998 0 0 0 -0.0737,-0.08544 9.9999998,9.9999998 0 0 0 -0.0958,-0.108867 9.9999998,9.9999998 0 0 0 -0.009,-0.0095 9.9999998,9.9999998 0 0 0 -0.0303,-0.03387 9.9999998,9.9999998 0 0 0 -0.0758,-0.08269 9.9999998,9.9999998 0 0 0 -0.031,-0.03316 9.9999998,9.9999998 0 0 0 -0.0779,-0.08199 9.9999998,9.9999998 0 0 0 -0.0311,-0.03246 9.9999998,9.9999998 0 0 0 -0.0786,-0.08061 9.9999998,9.9999998 0 0 0 -0.0325,-0.03245 9.9999998,9.9999998 0 0 0 -0.0799,-0.07923 9.9999998,9.9999998 0 0 0 -0.0325,-0.03175 9.9999998,9.9999998 0 0 0 -0.0813,-0.07789 9.9999998,9.9999998 0 0 0 -0.0332,-0.03104 9.9999998,9.9999998 0 0 0 -0.11575,-0.107492 9.9999998,9.9999998 0 0 0 -0.0834,-0.07511 9.9999998,9.9999998 0 0 0 -0.0346,-0.03034 9.9999998,9.9999998 0 0 0 -0.1192,-0.104034 9.9999998,9.9999998 0 0 0 -0.0854,-0.07236 9.9999998,9.9999998 0 0 0 -0.0353,-0.02893 9.9999998,9.9999998 0 0 0 -0.12263,-0.09991 9.9999998,9.9999998 0 0 0 -0.12333,-0.09783 9.9999998,9.9999998 0 0 0 -0.12612,-0.09578 9.9999998,9.9999998 0 0 0 -0.0902,-0.06752 9.9999998,9.9999998 0 0 0 -0.0365,-0.02681 9.9999998,9.9999998 0 0 0 -0.091,-0.06544 9.9999998,9.9999998 0 0 0 -0.0372,-0.02611 9.9999998,9.9999998 0 0 0 -0.0923,-0.06406 9.9999998,9.9999998 0 0 0 -0.0379,-0.0254 9.9999998,9.9999998 0 0 0 -0.0951,-0.06406 9.9999998,9.9999998 0 0 0 -0.0813,-0.05306 9.9999998,9.9999998 0 0 0 -0.0875,-0.05651 9.9999998,9.9999998 0 0 0 -0.13367,-0.08336 9.9999998,9.9999998 0 0 0 -0.0965,-0.05856 9.9999998,9.9999998 0 0 0 -0.0393,-0.02328 9.9999998,9.9999998 0 0 0 -0.0972,-0.05651 9.9999998,9.9999998 0 0 0 -0.0393,-0.02258 9.9999998,9.9999998 0 0 0 -0.0978,-0.05514 9.9999998,9.9999998 0 0 0 -0.04,-0.02223 9.9999998,9.9999998 0 0 0 -0.0992,-0.05373 9.9999998,9.9999998 0 0 0 -0.0399,-0.02152 9.9999998,9.9999998 0 0 0 -0.0992,-0.05165 9.9999998,9.9999998 0 0 0 -0.0406,-0.02081 9.9999998,9.9999998 0 0 0 -0.0641,-0.03246 9.9999998,9.9999998 0 0 0 -0.0365,-0.01799 9.9999998,9.9999998 0 0 0 -0.10541,-0.05168 9.9999998,9.9999998 0 0 0 -0.0365,-0.01729 9.9999998,9.9999998 0 0 0 -0.10682,-0.05031 9.9999998,9.9999998 0 0 0 -0.0365,-0.01658 9.9999998,9.9999998 0 0 0 -0.10749,-0.04823 9.9999998,9.9999998 0 0 0 -0.14125,-0.06131 9.9999998,9.9999998 0 0 0 -0.003,0 9.9999998,9.9999998 0 0 0 -0.0372,-0.01587 9.9999998,9.9999998 0 0 0 -0.10887,-0.04477 9.9999998,9.9999998 0 0 0 -0.007,-0.0035 9.9999998,9.9999998 0 0 0 -0.10474,-0.04134 9.9999998,9.9999998 0 0 0 -0.0353,-0.01376 9.9999998,9.9999998 0 0 0 -0.0572,-0.02222 9.9999998,9.9999998 0 0 0 -0.12883,-0.04752 9.9999998,9.9999998 0 0 0 -0.14884,-0.05306 9.9999998,9.9999998 0 0 0 -0.14884,-0.05031 9.9999998,9.9999998 0 0 0 -0.11165,-0.03584 9.9999998,9.9999998 0 0 0 -0.0386,-0.01235 9.9999998,9.9999998 0 0 0 -0.0462,-0.01376 9.9999998,9.9999998 0 0 0 -0.10474,-0.03175 9.9999998,9.9999998 0 0 0 -0.15226,-0.04343 9.9999998,9.9999998 0 0 0 -0.11299,-0.03105 9.9999998,9.9999998 0 0 0 -0.0393,-0.01023 9.9999998,9.9999998 0 0 0 -0.11371,-0.02893 9.9999998,9.9999998 0 0 0 -0.04,-0.0095 9.9999998,9.9999998 0 0 0 -0.1137,-0.02681 9.9999998,9.9999998 0 0 0 -0.0399,-0.0088 9.9999998,9.9999998 0 0 0 -0.008,-0.0035 9.9999998,9.9999998 0 0 0 -0.13917,-0.03034 9.9999998,9.9999998 0 0 0 -0.007,0 9.9999998,9.9999998 0 0 0 -0.11507,-0.02328 9.9999998,9.9999998 0 0 0 -0.0393,-0.0074 9.9999998,9.9999998 0 0 0 -0.0138,-0.0035 9.9999998,9.9999998 0 0 0 -0.14193,-0.0261 9.9999998,9.9999998 0 0 0 -0.15504,-0.02611 9.9999998,9.9999998 0 0 0 -0.11578,-0.01799 9.9999998,9.9999998 0 0 0 -0.15364,-0.02152 9.9999998,9.9999998 0 0 0 -0.003,0 9.9999998,9.9999998 0 0 0 -0.0407,-0.0056 9.9999998,9.9999998 0 0 0 -0.0413,-0.0049 9.9999998,9.9999998 0 0 0 -0.11504,-0.01376 9.9999998,9.9999998 0 0 0 -0.11716,-0.01235 9.9999998,9.9999998 0 0 0 -0.006,0 9.9999998,9.9999998 0 0 0 -0.13779,-0.01235 9.9999998,9.9999998 0 0 0 -0.0138,0 9.9999998,9.9999998 0 0 0 -0.04,-0.0035 9.9999998,9.9999998 0 0 0 -0.11713,-0.0088 9.9999998,9.9999998 0 0 0 -0.0406,-0.0035 9.9999998,9.9999998 0 0 0 -0.11712,-0.0071 9.9999998,9.9999998 0 0 0 -0.0407,-0.0035 9.9999998,9.9999998 0 0 0 -0.14192,-0.0056 9.9999998,9.9999998 0 0 0 -0.0159,0 9.9999998,9.9999998 0 0 0 -0.031,0 9.9999998,9.9999998 0 0 0 -0.11508,-0.0035 9.9999998,9.9999998 0 0 0 -0.0116,0 9.9999998,9.9999998 0 0 0 -0.0358,0 9.9999998,9.9999998 0 0 0 -0.12195,0 9.9999998,9.9999998 0 0 0 -0.117829,0 z m 0.101986,32.360446 46.684492,93.36899 H 53.314446 Z"
       id="path2948" />
    <path
       style="color:#000000;font-style:normal;font-variant:normal;font-weight:normal;font-stretch:normal;font-size:medium;line-height:normal;font-family:sans-serif;font-variant-ligatures:normal;font-variant-position:normal;font-variant-caps:normal;font-variant-numeric:normal;font-variant-alternates:normal;font-variant-east-asian:normal;font-feature-settings:normal;font-variation-settings:normal;text-indent:0;text-align:start;text-decoration:none;text-decoration-line:none;text-decoration-style:solid;text-decoration-color:#000000;letter-spacing:normal;word-spacing:normal;text-transform:none;writing-mode:lr-tb;direction:ltr;text-orientation:mixed;dominant-baseline:auto;baseline-shift:baseline;text-anchor:start;white-space:normal;shape-padding:0;shape-margin:0;inline-size:0;clip-rule:nonzero;display:inline;overflow:visible;visibility:visible;opacity:1;isolation:auto;mix-blend-mode:normal;color-interpolation:sRGB;color-interpolation-filters:linearRGB;solid-color:#000000;solid-opacity:1;vector-effect:none;fill:#000000;fill-opacity:1;fill-rule:nonzero;stroke:none;stroke-width:20;stroke-linecap:round;stroke-linejoin:round;stroke-miterlimit:10;stroke-dasharray:none;stroke-dashoffset:0;stroke-opacity:1;color-rendering:auto;image-rendering:auto;shape-rendering:auto;text-rendering:auto;enable-background:accumulate;stop-color:#000000;stop-opacity:1"
       d="m 37.135283,27.135548 a 10.001,10.001 0 0 0 -9.999734,9.999733 V 162.86472 a 10.001,10.001 0 0 0 9.999734,9.99973 H 162.86472 a 10.001,10.001 0 0 0 9.99973,-9.99973 V 37.135281 a 10.001,10.001 0 0 0 -9.99973,-9.999733 z m 9.999732,19.999466 H 152.86498 V 152.86498 H 47.135015 Z"
       id="path2952" />
  </g>
</svg>
