<?xml version="1.0" encoding="UTF-8" standalone="no"?>
<svg
   xmlns:dc="http://purl.org/dc/elements/1.1/"
   xmlns:cc="http://creativecommons.org/ns#"
   xmlns:rdf="http://www.w3.org/1999/02/22-rdf-syntax-ns#"
   xmlns:svg="http://www.w3.org/2000/svg"
   xmlns="http://www.w3.org/2000/svg"
   xmlns:sodipodi="http://sodipodi.sourceforge.net/DTD/sodipodi-0.dtd"
   xmlns:inkscape="http://www.inkscape.org/namespaces/inkscape"
   sodipodi:docname="2.svg"
   inkscape:version="1.0 (4035a4fb49, 2020-05-01)"
   id="svg5612"
   version="1.1"
   viewBox="0 0 200 200"
   height="200mm"
   width="200mm">
  <defs
     id="defs5606" />
  <sodipodi:namedview
     inkscape:window-maximized="0"
     inkscape:window-y="0"
     inkscape:window-x="104"
     inkscape:window-height="1041"
     inkscape:window-width="1274"
     showgrid="false"
     inkscape:document-rotation="0"
     inkscape:current-layer="layer1"
     inkscape:document-units="mm"
     inkscape:cy="560"
     inkscape:cx="-150"
     inkscape:zoom="0.35"
     inkscape:pageshadow="2"
     inkscape:pageopacity="0.0"
     borderopacity="1.0"
     bordercolor="#666666"
     pagecolor="#ffffff"
     id="base" />
  <metadata
     id="metadata5609">
    <rdf:RDF>
      <cc:Work
         rdf:about="">
        <dc:format>image/svg+xml</dc:format>
        <dc:type
           rdf:resource="http://purl.org/dc/dcmitype/StillImage" />
        <dc:title></dc:title>
      </cc:Work>
    </rdf:RDF>
  </metadata>
  <g
     id="layer1"
     inkscape:groupmode="layer"
     inkscape:label="Layer 1">
    <path
       id="path6192"
       d="M 99.917969 16.677734 A 10 10 0 0 0 99.835938 16.679688 A 10 10 0 0 0 99.583984 16.6875 A 10 10 0 0 0 99.570312 16.6875 A 10 10 0 0 0 99.527344 16.689453 A 10 10 0 0 0 99.304688 16.703125 A 10 10 0 0 0 99.28125 16.705078 A 10 10 0 0 0 99.070312 16.722656 A 10 10 0 0 0 98.945312 16.734375 A 10 10 0 0 0 98.8125 16.75 A 10 10 0 0 0 98.699219 16.763672 A 10 10 0 0 0 98.558594 16.783203 A 10 10 0 0 0 98.371094 16.8125 A 10 10 0 0 0 98.316406 16.820312 A 10 10 0 0 0 98.068359 16.867188 A 10 10 0 0 0 97.824219 16.917969 A 10 10 0 0 0 97.800781 16.923828 A 10 10 0 0 0 97.664062 16.955078 A 10 10 0 0 0 97.470703 17.003906 A 10 10 0 0 0 97.228516 17.070312 A 10 10 0 0 0 97.171875 17.085938 A 10 10 0 0 0 96.960938 17.152344 A 10 10 0 0 0 96.958984 17.152344 A 10 10 0 0 0 96.953125 17.154297 A 10 10 0 0 0 96.712891 17.234375 A 10 10 0 0 0 96.691406 17.242188 A 10 10 0 0 0 96.482422 17.316406 A 10 10 0 0 0 96.400391 17.347656 A 10 10 0 0 0 96.244141 17.410156 A 10 10 0 0 0 96.208984 17.423828 A 10 10 0 0 0 96.041016 17.496094 A 10 10 0 0 0 95.849609 17.580078 A 10 10 0 0 0 95.796875 17.603516 A 10 10 0 0 0 95.753906 17.625 A 10 10 0 0 0 95.632812 17.683594 A 10 10 0 0 0 95.529297 17.734375 A 10 10 0 0 0 95.373047 17.814453 A 10 10 0 0 0 95.302734 17.851562 A 10 10 0 0 0 95.160156 17.927734 A 10 10 0 0 0 95.056641 17.984375 A 10 10 0 0 0 95 18.017578 A 10 10 0 0 0 94.955078 18.044922 A 10 10 0 0 0 94.789062 18.144531 A 10 10 0 0 0 94.734375 18.177734 A 10 10 0 0 0 94.605469 18.257812 A 10 10 0 0 0 94.419922 18.378906 A 10 10 0 0 0 94.404297 18.390625 A 10 10 0 0 0 94.205078 18.529297 A 10 10 0 0 0 94.177734 18.548828 A 10 10 0 0 0 94.066406 18.628906 A 10 10 0 0 0 93.896484 18.757812 A 10 10 0 0 0 93.730469 18.886719 A 10 10 0 0 0 93.601562 18.992188 A 10 10 0 0 0 93.533203 19.050781 A 10 10 0 0 0 93.435547 19.134766 A 10 10 0 0 0 93.285156 19.269531 A 10 10 0 0 0 93.162109 19.382812 A 10 10 0 0 0 93.037109 19.501953 A 10 10 0 0 0 92.900391 19.636719 A 10 10 0 0 0 92.734375 19.808594 A 10 10 0 0 0 92.6875 19.859375 A 10 10 0 0 0 92.5625 19.992188 A 10 10 0 0 0 92.480469 20.085938 A 10 10 0 0 0 92.392578 20.189453 A 10 10 0 0 0 92.322266 20.273438 A 10 10 0 0 0 92.255859 20.351562 A 10 10 0 0 0 92.193359 20.429688 A 10 10 0 0 0 92.048828 20.613281 A 10 10 0 0 0 92.029297 20.638672 A 10 10 0 0 0 91.931641 20.771484 A 10 10 0 0 0 91.777344 20.988281 A 10 10 0 0 0 91.628906 21.208984 A 10 10 0 0 0 91.486328 21.433594 A 10 10 0 0 0 91.376953 21.617188 A 10 10 0 0 0 91.339844 21.677734 A 10 10 0 0 0 91.298828 21.75 L 6.6738281 168.32227 A 10.001 10.001 0 0 0 15.333984 183.32227 L 184.66602 183.32227 A 10.001 10.001 0 0 0 193.32617 168.32227 L 108.71094 21.767578 L 108.71094 21.765625 A 10 10 0 0 0 108.58594 21.554688 A 10 10 0 0 0 108.57617 21.537109 A 10 10 0 0 0 108.52344 21.449219 A 10 10 0 0 0 108.4375 21.310547 A 10 10 0 0 0 108.41992 21.283203 A 10 10 0 0 0 108.29883 21.097656 A 10 10 0 0 0 108.29102 21.087891 A 10 10 0 0 0 108.23438 21.003906 A 10 10 0 0 0 108.20117 20.958984 A 10 10 0 0 0 108.08008 20.787109 A 10 10 0 0 0 107.98242 20.654297 A 10 10 0 0 0 107.92188 20.574219 A 10 10 0 0 0 107.82031 20.445312 A 10 10 0 0 0 107.75586 20.365234 A 10 10 0 0 0 107.65039 20.238281 A 10 10 0 0 0 107.58594 20.162109 A 10 10 0 0 0 107.47656 20.037109 A 10 10 0 0 0 107.41016 19.962891 A 10 10 0 0 0 107.29688 19.841797 A 10 10 0 0 0 107.13672 19.675781 A 10 10 0 0 0 107.11328 19.650391 A 10 10 0 0 0 107.04102 19.578125 A 10 10 0 0 0 106.92383 19.462891 A 10 10 0 0 0 106.91211 19.451172 A 10 10 0 0 0 106.76562 19.314453 A 10 10 0 0 0 106.73047 19.28125 A 10 10 0 0 0 106.6543 19.212891 A 10 10 0 0 0 106.53125 19.105469 A 10 10 0 0 0 106.45312 19.039062 A 10 10 0 0 0 106.32617 18.933594 A 10 10 0 0 0 106.24805 18.871094 A 10 10 0 0 0 106.11914 18.769531 A 10 10 0 0 0 106.10742 18.761719 A 10 10 0 0 0 105.90625 18.609375 A 10 10 0 0 0 105.68945 18.455078 A 10 10 0 0 0 105.48633 18.318359 A 10 10 0 0 0 105.46875 18.306641 A 10 10 0 0 0 105.38477 18.251953 A 10 10 0 0 0 105.24414 18.164062 A 10 10 0 0 0 105.1582 18.111328 A 10 10 0 0 0 105.01562 18.027344 A 10 10 0 0 0 105 18.017578 A 10 10 0 0 0 104.95898 17.994141 A 10 10 0 0 0 104.92773 17.976562 A 10 10 0 0 0 104.76758 17.888672 A 10 10 0 0 0 104.69531 17.849609 A 10 10 0 0 0 104.6543 17.828125 A 10 10 0 0 0 104.48047 17.738281 A 10 10 0 0 0 104.45898 17.726562 A 10 10 0 0 0 104.29492 17.646484 A 10 10 0 0 0 104.21875 17.611328 A 10 10 0 0 0 104.05273 17.535156 A 10 10 0 0 0 103.97656 17.501953 A 10 10 0 0 0 103.80859 17.431641 A 10 10 0 0 0 103.78906 17.423828 A 10 10 0 0 0 103.56055 17.333984 A 10 10 0 0 0 103.48438 17.304688 A 10 10 0 0 0 103.28906 17.234375 A 10 10 0 0 0 103.23242 17.214844 A 10 10 0 0 0 103.05859 17.158203 A 10 10 0 0 0 103.05664 17.158203 A 10 10 0 0 0 102.8457 17.091797 A 10 10 0 0 0 102.80469 17.080078 A 10 10 0 0 0 102.72461 17.056641 A 10 10 0 0 0 102.67188 17.042969 A 10 10 0 0 0 102.46875 16.988281 A 10 10 0 0 0 102.21484 16.927734 A 10 10 0 0 0 102.21094 16.925781 A 10 10 0 0 0 102.03125 16.886719 A 10 10 0 0 0 102.02344 16.884766 A 10 10 0 0 0 101.82617 16.847656 A 10 10 0 0 0 101.76953 16.835938 A 10 10 0 0 0 101.68945 16.822266 A 10 10 0 0 0 101.50781 16.792969 A 10 10 0 0 0 101.28125 16.761719 A 10 10 0 0 0 101.24414 16.755859 A 10 10 0 0 0 101.16211 16.746094 A 10 10 0 0 0 100.98047 16.726562 A 10 10 0 0 0 100.89844 16.71875 A 10 10 0 0 0 100.67969 16.701172 A 10 10 0 0 0 100.5625 16.693359 A 10 10 0 0 0 100.36719 16.685547 A 10 10 0 0 0 100.18359 16.679688 A 10 10 0 0 0 100.16211 16.679688 A 10 10 0 0 0 100.00977 16.677734 A 10 10 0 0 0 99.917969 16.677734 z M 100 46.677734 L 167.3457 163.32227 L 32.654297 163.32227 L 100 46.677734 z "
       style="color:#000000;font-style:normal;font-variant:normal;font-weight:normal;font-stretch:normal;font-size:medium;line-height:normal;font-family:sans-serif;font-variant-ligatures:normal;font-variant-position:normal;font-variant-caps:normal;font-variant-numeric:normal;font-variant-alternates:normal;font-variant-east-asian:normal;font-feature-settings:normal;font-variation-settings:normal;text-indent:0;text-align:start;text-decoration:none;text-decoration-line:none;text-decoration-style:solid;text-decoration-color:#000000;letter-spacing:normal;word-spacing:normal;text-transform:none;writing-mode:lr-tb;direction:ltr;text-orientation:mixed;dominant-baseline:auto;baseline-shift:baseline;text-anchor:start;white-space:normal;shape-padding:0;shape-margin:0;inline-size:0;clip-rule:nonzero;display:inline;overflow:visible;visibility:visible;isolation:auto;mix-blend-mode:normal;color-interpolation:sRGB;color-interpolation-filters:linearRGB;solid-color:#000000;solid-opacity:1;vector-effect:none;fill:#000000;fill-opacity:1;fill-rule:nonzero;stroke:none;stroke-width:20;stroke-linecap:round;stroke-linejoin:round;stroke-miterlimit:10;stroke-dasharray:none;stroke-dashoffset:0;stroke-opacity:1;color-rendering:auto;image-rendering:auto;shape-rendering:auto;text-rendering:auto;enable-background:accumulate;stop-color:#000000;stop-opacity:1;opacity:1" />
  </g>
</svg>
