<?xml version="1.0" encoding="UTF-8" standalone="no"?>
<svg
   xmlns:dc="http://purl.org/dc/elements/1.1/"
   xmlns:cc="http://creativecommons.org/ns#"
   xmlns:rdf="http://www.w3.org/1999/02/22-rdf-syntax-ns#"
   xmlns:svg="http://www.w3.org/2000/svg"
   xmlns="http://www.w3.org/2000/svg"
   xmlns:sodipodi="http://sodipodi.sourceforge.net/DTD/sodipodi-0.dtd"
   xmlns:inkscape="http://www.inkscape.org/namespaces/inkscape"
   sodipodi:docname="23.svg"
   inkscape:version="1.0 (4035a4fb49, 2020-05-01)"
   id="svg3069"
   version="1.1"
   viewBox="0 0 200 200"
   height="200mm"
   width="200mm">
  <defs
     id="defs3063" />
  <sodipodi:namedview
     inkscape:window-maximized="1"
     inkscape:window-y="-8"
     inkscape:window-x="-8"
     inkscape:window-height="1027"
     inkscape:window-width="1920"
     showgrid="false"
     inkscape:document-rotation="0"
     inkscape:current-layer="layer1"
     inkscape:document-units="mm"
     inkscape:cy="560"
     inkscape:cx="-150"
     inkscape:zoom="0.35"
     inkscape:pageshadow="2"
     inkscape:pageopacity="0.0"
     borderopacity="1.0"
     bordercolor="#666666"
     pagecolor="#ffffff"
     id="base" />
  <metadata
     id="metadata3066">
    <rdf:RDF>
      <cc:Work
         rdf:about="">
        <dc:format>image/svg+xml</dc:format>
        <dc:type
           rdf:resource="http://purl.org/dc/dcmitype/StillImage" />
        <dc:title></dc:title>
      </cc:Work>
    </rdf:RDF>
  </metadata>
  <g
     id="layer1"
     inkscape:groupmode="layer"
     inkscape:label="Layer 1">
    <path
       style="color:#000000;font-style:normal;font-variant:normal;font-weight:normal;font-stretch:normal;font-size:medium;line-height:normal;font-family:sans-serif;font-variant-ligatures:normal;font-variant-position:normal;font-variant-caps:normal;font-variant-numeric:normal;font-variant-alternates:normal;font-variant-east-asian:normal;font-feature-settings:normal;font-variation-settings:normal;text-indent:0;text-align:start;text-decoration:none;text-decoration-line:none;text-decoration-style:solid;text-decoration-color:#000000;letter-spacing:normal;word-spacing:normal;text-transform:none;writing-mode:lr-tb;direction:ltr;text-orientation:mixed;dominant-baseline:auto;baseline-shift:baseline;text-anchor:start;white-space:normal;shape-padding:0;shape-margin:0;inline-size:0;clip-rule:nonzero;display:inline;overflow:visible;visibility:visible;opacity:1;isolation:auto;mix-blend-mode:normal;color-interpolation:sRGB;color-interpolation-filters:linearRGB;solid-color:#000000;solid-opacity:1;vector-effect:none;fill:#000000;fill-opacity:1;fill-rule:nonzero;stroke:none;stroke-width:20;stroke-linecap:round;stroke-linejoin:round;stroke-miterlimit:10;stroke-dasharray:none;stroke-dashoffset:0;stroke-opacity:1;color-rendering:auto;image-rendering:auto;shape-rendering:auto;text-rendering:auto;enable-background:accumulate;stop-color:#000000;stop-opacity:1"
       d="m 99.95663,11.210852 a 10.001,10.001 0 0 0 -7.02804,2.92901 L 14.1392,92.928472 a 10.001,10.001 0 0 0 0,14.142858 l 78.73894,78.73824 0.0504,0.0512 a 9.9999998,9.9999998 0 0 0 0.58032,0.53516 9.9999998,9.9999998 0 0 0 0.49319,0.39476 9.9999998,9.9999998 0 0 0 0.12664,0.0938 9.9999998,9.9999998 0 0 0 0.25929,0.18133 9.9999998,9.9999998 0 0 0 0.39829,0.25682 9.9999998,9.9999998 0 0 0 0.27199,0.15981 9.9999998,9.9999998 0 0 0 0.27693,0.1524 9.9999998,9.9999998 0 0 0 0.28187,0.14252 9.9999998,9.9999998 0 0 0 0.43074,0.19791 9.9999998,9.9999998 0 0 0 0.14535,0.0614 9.9999998,9.9999998 0 0 0 0.14605,0.0586 9.9999998,9.9999998 0 0 0 0.14746,0.0565 9.9999998,9.9999998 0 0 0 0.14887,0.0543 9.9999998,9.9999998 0 0 0 0.14887,0.0526 9.9999998,9.9999998 0 0 0 0.15029,0.0494 9.9999998,9.9999998 0 0 0 0.75988,0.21237 9.9999998,9.9999998 0 0 0 0.15416,0.0349 9.9999998,9.9999998 0 0 0 0.62089,0.11677 9.9999998,9.9999998 0 0 0 0.15628,0.0226 9.9999998,9.9999998 0 0 0 0.47061,0.0536 9.9999998,9.9999998 0 0 0 0.15734,0.013 9.9999998,9.9999998 0 0 0 0.15769,0.0106 9.9999998,9.9999998 0 0 0 0.15769,0.008 9.9999998,9.9999998 0 0 0 0.94756,-0.004 9.9999998,9.9999998 0 0 0 0.31468,-0.0212 9.9999998,9.9999998 0 0 0 0.15734,-0.0145 9.9999998,9.9999998 0 0 0 0.31397,-0.036 9.9999998,9.9999998 0 0 0 0.15663,-0.0219 9.9999998,9.9999998 0 0 0 0.46708,-0.0801 9.9999998,9.9999998 0 0 0 0.15417,-0.0317 9.9999998,9.9999998 0 0 0 0.61348,-0.15064 9.9999998,9.9999998 0 0 0 0.15204,-0.0441 9.9999998,9.9999998 0 0 0 0.30128,-0.0946 9.9999998,9.9999998 0 0 0 0.14957,-0.0508 9.9999998,9.9999998 0 0 0 0.4438,-0.16686 9.9999998,9.9999998 0 0 0 0.14534,-0.06 9.9999998,9.9999998 0 0 0 0.14535,-0.0628 9.9999998,9.9999998 0 0 0 0.28716,-0.13229 9.9999998,9.9999998 0 0 0 0.42227,-0.21414 9.9999998,9.9999998 0 0 0 0.27587,-0.15451 9.9999998,9.9999998 0 0 0 0.40358,-0.2473 9.9999998,9.9999998 0 0 0 0.39229,-0.26599 9.9999998,9.9999998 0 0 0 0.62336,-0.48366 9.9999998,9.9999998 0 0 0 0.3556,-0.31362 9.9999998,9.9999998 0 0 0 0.27975,-0.26847 l 78.7894,-78.78941 a 10.001,10.001 0 0 0 0,-14.142858 l -78.78939,-78.78861 a 10.001,10.001 0 0 0 -7.11482,-2.92901 z m 0.0434,24.14182 64.64723,64.64723 -64.64723,64.647228 -64.647235,-64.647228 z"
       id="path2976" />
  </g>
</svg>
