<?xml version="1.0" encoding="UTF-8" standalone="no"?>
<svg
   xmlns:dc="http://purl.org/dc/elements/1.1/"
   xmlns:cc="http://creativecommons.org/ns#"
   xmlns:rdf="http://www.w3.org/1999/02/22-rdf-syntax-ns#"
   xmlns:svg="http://www.w3.org/2000/svg"
   xmlns="http://www.w3.org/2000/svg"
   xmlns:sodipodi="http://sodipodi.sourceforge.net/DTD/sodipodi-0.dtd"
   xmlns:inkscape="http://www.inkscape.org/namespaces/inkscape"
   sodipodi:docname="24.svg"
   inkscape:version="1.0 (4035a4fb49, 2020-05-01)"
   id="svg3069"
   version="1.1"
   viewBox="0 0 200 200"
   height="200mm"
   width="200mm">
  <defs
     id="defs3063" />
  <sodipodi:namedview
     inkscape:window-maximized="1"
     inkscape:window-y="-8"
     inkscape:window-x="-8"
     inkscape:window-height="1027"
     inkscape:window-width="1920"
     showgrid="false"
     inkscape:document-rotation="0"
     inkscape:current-layer="layer1"
     inkscape:document-units="mm"
     inkscape:cy="560"
     inkscape:cx="-150"
     inkscape:zoom="0.35"
     inkscape:pageshadow="2"
     inkscape:pageopacity="0.0"
     borderopacity="1.0"
     bordercolor="#666666"
     pagecolor="#ffffff"
     id="base" />
  <metadata
     id="metadata3066">
    <rdf:RDF>
      <cc:Work
         rdf:about="">
        <dc:format>image/svg+xml</dc:format>
        <dc:type
           rdf:resource="http://purl.org/dc/dcmitype/StillImage" />
        <dc:title></dc:title>
      </cc:Work>
    </rdf:RDF>
  </metadata>
  <g
     id="layer1"
     inkscape:groupmode="layer"
     inkscape:label="Layer 1">
    <path
       style="color:#000000;font-style:normal;font-variant:normal;font-weight:normal;font-stretch:normal;font-size:medium;line-height:normal;font-family:sans-serif;font-variant-ligatures:normal;font-variant-position:normal;font-variant-caps:normal;font-variant-numeric:normal;font-variant-alternates:normal;font-variant-east-asian:normal;font-feature-settings:normal;font-variation-settings:normal;text-indent:0;text-align:start;text-decoration:none;text-decoration-line:none;text-decoration-style:solid;text-decoration-color:#000000;letter-spacing:normal;word-spacing:normal;text-transform:none;writing-mode:lr-tb;direction:ltr;text-orientation:mixed;dominant-baseline:auto;baseline-shift:baseline;text-anchor:start;white-space:normal;shape-padding:0;shape-margin:0;inline-size:0;clip-rule:nonzero;display:inline;overflow:visible;visibility:visible;opacity:1;isolation:auto;mix-blend-mode:normal;color-interpolation:sRGB;color-interpolation-filters:linearRGB;solid-color:#000000;solid-opacity:1;vector-effect:none;fill:#000000;fill-opacity:1;fill-rule:nonzero;stroke:none;stroke-width:20;stroke-linecap:round;stroke-linejoin:round;stroke-miterlimit:10;stroke-dasharray:none;stroke-dashoffset:0;stroke-opacity:1;color-rendering:auto;image-rendering:auto;shape-rendering:auto;text-rendering:auto;enable-background:accumulate;stop-color:#000000;stop-opacity:1"
       d="m 100.02494,16.699591 a 9.9999998,9.9999998 0 0 0 -0.134365,0 9.9999998,9.9999998 0 0 0 -0.11921,0 9.9999998,9.9999998 0 0 0 -0.19635,0.0071 9.9999998,9.9999998 0 0 0 -0.13162,0.0071 9.9999998,9.9999998 0 0 0 -0.0325,0 9.9999998,9.9999998 0 0 0 -0.018,0 9.9999998,9.9999998 0 0 0 -0.13367,0.01058 9.9999998,9.9999998 0 0 0 -0.0799,0.0071 9.9999998,9.9999998 0 0 0 -0.10128,0.0071 9.9999998,9.9999998 0 0 0 -0.0737,0.0071 9.9999998,9.9999998 0 0 0 -0.0593,0.0071 9.9999998,9.9999998 0 0 0 -0.15709,0.01764 9.9999998,9.9999998 0 0 0 -0.0854,0.01058 9.9999998,9.9999998 0 0 0 -0.0861,0.01058 9.9999998,9.9999998 0 0 0 -0.009,0 9.9999998,9.9999998 0 0 0 -0.1323,0.02117 9.9999998,9.9999998 0 0 0 -0.10061,0.01411 9.9999998,9.9999998 0 0 0 -0.0662,0.01058 9.9999998,9.9999998 0 0 0 -0.013,0 9.9999998,9.9999998 0 0 0 -0.13159,0.02469 9.9999998,9.9999998 0 0 0 -0.30938,0.06244 9.9999998,9.9999998 0 0 0 -0.11645,0.0247 9.9999998,9.9999998 0 0 0 -0.0586,0.01411 9.9999998,9.9999998 0 0 0 -0.007,0 9.9999998,9.9999998 0 0 0 -0.12471,0.03175 9.9999998,9.9999998 0 0 0 -0.0233,0.0071 9.9999998,9.9999998 0 0 0 -0.13367,0.03528 9.9999998,9.9999998 0 0 0 -0.0834,0.02117 9.9999998,9.9999998 0 0 0 -0.0648,0.01764 9.9999998,9.9999998 0 0 0 -0.0229,0.0071 9.9999998,9.9999998 0 0 0 -0.14054,0.04163 9.9999998,9.9999998 0 0 0 -0.0482,0.01411 9.9999998,9.9999998 0 0 0 -0.091,0.02822 9.9999998,9.9999998 0 0 0 -0.0226,0.0071 9.9999998,9.9999998 0 0 0 -0.12884,0.04269 9.9999998,9.9999998 0 0 0 -0.0208,0.0071 9.9999998,9.9999998 0 0 0 -0.12679,0.0448 9.9999998,9.9999998 0 0 0 -0.11232,0.04057 9.9999998,9.9999998 0 0 0 -0.0461,0.01764 9.9999998,9.9999998 0 0 0 -0.0503,0.01764 9.9999998,9.9999998 0 0 0 -0.0868,0.03175 9.9999998,9.9999998 0 0 0 -0.0222,0.01058 9.9999998,9.9999998 0 0 0 -0.12746,0.05151 9.9999998,9.9999998 0 0 0 -0.0194,0.0071 9.9999998,9.9999998 0 0 0 -0.12333,0.05221 9.9999998,9.9999998 0 0 0 -0.12404,0.05433 9.9999998,9.9999998 0 0 0 -0.0332,0.01411 9.9999998,9.9999998 0 0 0 -0.051,0.0247 9.9999998,9.9999998 0 0 0 -0.091,0.04198 9.9999998,9.9999998 0 0 0 -0.10128,0.04833 9.9999998,9.9999998 0 0 0 -0.0346,0.01764 9.9999998,9.9999998 0 0 0 -0.0772,0.03881 9.9999998,9.9999998 0 0 0 -0.0599,0.02822 9.9999998,9.9999998 0 0 0 -0.0215,0.01058 9.9999998,9.9999998 0 0 0 -0.12058,0.06209 9.9999998,9.9999998 0 0 0 -0.0201,0.01058 9.9999998,9.9999998 0 0 0 -0.11783,0.06421 9.9999998,9.9999998 0 0 0 -0.11024,0.06138 9.9999998,9.9999998 0 0 0 -0.0399,0.02117 9.9999998,9.9999998 0 0 0 -0.0166,0.01058 9.9999998,9.9999998 0 0 0 -0.0339,0.01764 9.9999998,9.9999998 0 0 0 -0.0648,0.0381 9.9999998,9.9999998 0 0 0 -0.0441,0.02469 9.9999998,9.9999998 0 0 0 -0.062,0.03704 9.9999998,9.9999998 0 0 0 -0.0999,0.06138 9.9999998,9.9999998 0 0 0 -0.12608,0.07937 9.9999998,9.9999998 0 0 0 -0.051,0.03175 9.9999998,9.9999998 0 0 0 -0.0586,0.0381 9.9999998,9.9999998 0 0 0 -0.0806,0.05433 9.9999998,9.9999998 0 0 0 -0.071,0.04762 9.9999998,9.9999998 0 0 0 -0.0282,0.02117 9.9999998,9.9999998 0 0 0 -0.1082,0.07585 9.9999998,9.9999998 0 0 0 -0.005,0.0035 9.9999998,9.9999998 0 0 0 -0.12537,0.09102 9.9999998,9.9999998 0 0 0 -0.0992,0.07373 9.9999998,9.9999998 0 0 0 -0.082,0.06279 9.9999998,9.9999998 0 0 0 -0.0531,0.04057 9.9999998,9.9999998 0 0 0 -0.0441,0.03528 9.9999998,9.9999998 0 0 0 -0.0593,0.04692 9.9999998,9.9999998 0 0 0 -0.0372,0.03175 9.9999998,9.9999998 0 0 0 -0.12196,0.100542 9.9999998,9.9999998 0 0 0 -0.0896,0.07585 9.9999998,9.9999998 0 0 0 -0.0703,0.06138 9.9999998,9.9999998 0 0 0 -0.0758,0.06703 9.9999998,9.9999998 0 0 0 -0.004,0 9.9999998,9.9999998 0 0 0 -0.0813,0.07373 9.9999998,9.9999998 0 0 0 -0.0944,0.08678 9.9999998,9.9999998 0 0 0 -0.0317,0.03175 9.9999998,9.9999998 0 0 0 -0.0744,0.07056 9.9999998,9.9999998 0 0 0 -0.0496,0.04798 9.9999998,9.9999998 0 0 0 -0.0358,0.03598 9.9999998,9.9999998 0 0 0 -0.0565,0.05574 9.9999998,9.9999998 0 0 0 -0.0339,0.03528 9.9999998,9.9999998 0 0 0 -0.0944,0.09631 9.9999998,9.9999998 0 0 0 -0.0159,0.01764 9.9999998,9.9999998 0 0 0 -0.0751,0.08008 9.9999998,9.9999998 0 0 0 -0.082,0.0889 9.9999998,9.9999998 0 0 0 -0.0386,0.04198 9.9999998,9.9999998 0 0 0 -0.0187,0.02117 9.9999998,9.9999998 0 0 0 -0.073,0.0829 9.9999998,9.9999998 0 0 0 -0.082,0.09419 9.9999998,9.9999998 0 0 0 -0.0317,0.03739 9.9999998,9.9999998 0 0 0 -0.0606,0.07303 9.9999998,9.9999998 0 0 0 -0.0496,0.05927 9.9999998,9.9999998 0 0 0 -0.0496,0.06174 9.9999998,9.9999998 0 0 0 -0.0386,0.04833 9.9999998,9.9999998 0 0 0 -0.0434,0.05433 9.9999998,9.9999998 0 0 0 -0.0751,0.09737 9.9999998,9.9999998 0 0 0 -0.0724,0.0956 9.9999998,9.9999998 0 0 0 -0.0226,0.03175 9.9999998,9.9999998 0 0 0 -0.0648,0.0889 9.9999998,9.9999998 0 0 0 -0.0903,0.127705 9.9999998,9.9999998 0 0 0 -0.004,0 9.9999998,9.9999998 0 0 0 -0.062,0.09031 9.9999998,9.9999998 0 0 0 -0.0427,0.0628 9.9999998,9.9999998 0 0 0 -0.0627,0.09595 9.9999998,9.9999998 0 0 0 -0.0102,0.01411 9.9999998,9.9999998 0 0 0 -0.062,0.09666 9.9999998,9.9999998 0 0 0 -0.0386,0.06068 9.9999998,9.9999998 0 0 0 -0.0187,0.02822 9.9999998,9.9999998 0 0 0 -0.0655,0.106186 9.9999998,9.9999998 0 0 0 -0.007,0.01058 9.9999998,9.9999998 0 0 0 -0.0558,0.09419 9.9999998,9.9999998 0 0 0 -0.0247,0.04127 9.9999998,9.9999998 0 0 0 -0.0116,0.02117 L 6.674445,168.32348 a 10.001,10.001 0 0 0 8.660271,14.99976 H 184.66528 a 10.001,10.001 0 0 0 8.66027,-14.99976 L 108.68439,21.721383 a 9.9999998,9.9999998 0 0 0 -0.0799,-0.136172 9.9999998,9.9999998 0 0 0 -0.0537,-0.09031 9.9999998,9.9999998 0 0 0 -0.0531,-0.08608 9.9999998,9.9999998 0 0 0 -0.0792,-0.126295 9.9999998,9.9999998 0 0 0 -0.005,-0.0071 9.9999998,9.9999998 0 0 0 -0.0599,-0.09243 9.9999998,9.9999998 0 0 0 -0.0261,-0.03986 9.9999998,9.9999998 0 0 0 -0.0613,-0.09102 9.9999998,9.9999998 0 0 0 -0.0275,-0.04022 9.9999998,9.9999998 0 0 0 -0.0627,-0.08996 9.9999998,9.9999998 0 0 0 -0.0275,-0.03881 9.9999998,9.9999998 0 0 0 -0.0641,-0.0896 9.9999998,9.9999998 0 0 0 -0.0282,-0.03845 9.9999998,9.9999998 0 0 0 -0.0661,-0.08819 9.9999998,9.9999998 0 0 0 -0.0289,-0.03845 9.9999998,9.9999998 0 0 0 -0.0668,-0.08678 9.9999998,9.9999998 0 0 0 -0.0296,-0.0381 9.9999998,9.9999998 0 0 0 -0.0682,-0.08608 9.9999998,9.9999998 0 0 0 -0.0303,-0.0374 9.9999998,9.9999998 0 0 0 -0.10062,-0.121708 9.9999998,9.9999998 0 0 0 -0.071,-0.08396 9.9999998,9.9999998 0 0 0 -0.005,-0.0071 9.9999998,9.9999998 0 0 0 -0.0614,-0.0702 9.9999998,9.9999998 0 0 0 -0.0668,-0.07585 9.9999998,9.9999998 0 0 0 -0.004,-0.0035 9.9999998,9.9999998 0 0 0 -0.0737,-0.08114 9.9999998,9.9999998 0 0 0 -0.0868,-0.09454 9.9999998,9.9999998 0 0 0 -0.0201,-0.02117 9.9999998,9.9999998 0 0 0 -0.0332,-0.03528 9.9999998,9.9999998 0 0 0 -0.0765,-0.07937 9.9999998,9.9999998 0 0 0 -0.0339,-0.03528 9.9999998,9.9999998 0 0 0 -0.0772,-0.07796 9.9999998,9.9999998 0 0 0 -0.007,-0.0071 9.9999998,9.9999998 0 0 0 -0.10611,-0.103364 9.9999998,9.9999998 0 0 0 -0.11437,-0.108655 9.9999998,9.9999998 0 0 0 -0.0353,-0.03175 9.9999998,9.9999998 0 0 0 -0.0813,-0.07444 9.9999998,9.9999998 0 0 0 -0.0353,-0.03175 9.9999998,9.9999998 0 0 0 -0.0827,-0.07303 9.9999998,9.9999998 0 0 0 -0.0358,-0.03175 9.9999998,9.9999998 0 0 0 -0.0834,-0.07161 9.9999998,9.9999998 0 0 0 -0.0365,-0.03175 9.9999998,9.9999998 0 0 0 -0.0848,-0.0702 9.9999998,9.9999998 0 0 0 -0.0372,-0.03175 9.9999998,9.9999998 0 0 0 -0.0854,-0.06879 9.9999998,9.9999998 0 0 0 -0.0379,-0.03175 9.9999998,9.9999998 0 0 0 -0.0275,-0.02117 9.9999998,9.9999998 0 0 0 -0.0971,-0.07479 9.9999998,9.9999998 0 0 0 -0.0875,-0.06632 9.9999998,9.9999998 0 0 0 -0.0386,-0.02822 9.9999998,9.9999998 0 0 0 -0.0889,-0.06491 9.9999998,9.9999998 0 0 0 -0.12749,-0.08996 9.9999998,9.9999998 0 0 0 -0.091,-0.0628 9.9999998,9.9999998 0 0 0 -0.0393,-0.02822 9.9999998,9.9999998 0 0 0 -0.0393,-0.02822 9.9999998,9.9999998 0 0 0 -0.0923,-0.06033 9.9999998,9.9999998 0 0 0 -0.0399,-0.02822 9.9999998,9.9999998 0 0 0 -0.0923,-0.05927 9.9999998,9.9999998 0 0 0 -0.0406,-0.02469 9.9999998,9.9999998 0 0 0 -0.0937,-0.05786 9.9999998,9.9999998 0 0 0 -0.0413,-0.02469 9.9999998,9.9999998 0 0 0 -0.0944,-0.05574 9.9999998,9.9999998 0 0 0 -0.0413,-0.02469 9.9999998,9.9999998 0 0 0 -0.15846,-0.08961 9.9999998,9.9999998 0 0 0 -0.11713,-0.06385 9.9999998,9.9999998 0 0 0 -0.0215,-0.01058 9.9999998,9.9999998 0 0 0 -0.0358,-0.01764 9.9999998,9.9999998 0 0 0 -0.24461,-0.126295 9.9999998,9.9999998 0 0 0 -0.12058,-0.05856 9.9999998,9.9999998 0 0 0 -0.0215,-0.01058 9.9999998,9.9999998 0 0 0 -0.12195,-0.05715 9.9999998,9.9999998 0 0 0 -0.0215,-0.01058 9.9999998,9.9999998 0 0 0 -0.12263,-0.05539 9.9999998,9.9999998 0 0 0 -0.0215,-0.01058 9.9999998,9.9999998 0 0 0 -0.12333,-0.05292 9.9999998,9.9999998 0 0 0 -0.0222,-0.01058 9.9999998,9.9999998 0 0 0 -0.12404,-0.0508 9.9999998,9.9999998 0 0 0 -0.0222,-0.01058 9.9999998,9.9999998 0 0 0 -0.1247,-0.04868 9.9999998,9.9999998 0 0 0 -0.14814,-0.05609 9.9999998,9.9999998 0 0 0 -0.0222,-0.0071 9.9999998,9.9999998 0 0 0 -0.0427,-0.01411 9.9999998,9.9999998 0 0 0 -0.10611,-0.03775 9.9999998,9.9999998 0 0 0 -0.14951,-0.05045 9.9999998,9.9999998 0 0 0 -0.15088,-0.04833 9.9999998,9.9999998 0 0 0 -0.12817,-0.03916 9.9999998,9.9999998 0 0 0 -0.0226,-0.0071 9.9999998,9.9999998 0 0 0 -0.12883,-0.03704 9.9999998,9.9999998 0 0 0 -0.0226,-0.0071 9.9999998,9.9999998 0 0 0 -0.12951,-0.03528 9.9999998,9.9999998 0 0 0 -0.0236,-0.0071 9.9999998,9.9999998 0 0 0 -0.1295,-0.03175 9.9999998,9.9999998 0 0 0 -0.0827,-0.02117 9.9999998,9.9999998 0 0 0 -0.0944,-0.02117 9.9999998,9.9999998 0 0 0 -0.13092,-0.02822 9.9999998,9.9999998 0 0 0 -0.0233,-0.0035 9.9999998,9.9999998 0 0 0 -0.13158,-0.02822 9.9999998,9.9999998 0 0 0 -0.0233,-0.0035 9.9999998,9.9999998 0 0 0 -0.13159,-0.02469 9.9999998,9.9999998 0 0 0 -0.0233,-0.0035 9.9999998,9.9999998 0 0 0 -0.0208,-0.0035 9.9999998,9.9999998 0 0 0 -0.13505,-0.0247 9.9999998,9.9999998 0 0 0 -0.13229,-0.02117 9.9999998,9.9999998 0 0 0 -0.0233,-0.0035 9.9999998,9.9999998 0 0 0 -0.0282,-0.0035 9.9999998,9.9999998 0 0 0 -0.12883,-0.01764 9.9999998,9.9999998 0 0 0 -0.133,-0.01764 9.9999998,9.9999998 0 0 0 -0.0233,0 9.9999998,9.9999998 0 0 0 -0.13367,-0.01411 9.9999998,9.9999998 0 0 0 -0.15709,-0.01411 9.9999998,9.9999998 0 0 0 -0.0233,0 9.9999998,9.9999998 0 0 0 -0.0462,-0.0035 9.9999998,9.9999998 0 0 0 -0.11161,-0.0071 9.9999998,9.9999998 0 0 0 -0.31211,-0.01764 9.9999998,9.9999998 0 0 0 -0.003,0 9.9999998,9.9999998 0 0 0 -0.13366,-0.0035 9.9999998,9.9999998 0 0 0 -0.11095,0 9.9999998,9.9999998 0 0 0 -0.0709,0 z m -0.024,29.999871 67.34471,116.643498 H 32.656244 Z"
       id="path2980" />
  </g>
</svg>
