<?xml version="1.0" encoding="UTF-8" standalone="no"?>
<svg
   xmlns:dc="http://purl.org/dc/elements/1.1/"
   xmlns:cc="http://creativecommons.org/ns#"
   xmlns:rdf="http://www.w3.org/1999/02/22-rdf-syntax-ns#"
   xmlns:svg="http://www.w3.org/2000/svg"
   xmlns="http://www.w3.org/2000/svg"
   xmlns:sodipodi="http://sodipodi.sourceforge.net/DTD/sodipodi-0.dtd"
   xmlns:inkscape="http://www.inkscape.org/namespaces/inkscape"
   sodipodi:docname="25.svg"
   inkscape:version="1.0 (4035a4fb49, 2020-05-01)"
   id="svg3069"
   version="1.1"
   viewBox="0 0 200 200"
   height="200mm"
   width="200mm">
  <defs
     id="defs3063" />
  <sodipodi:namedview
     inkscape:window-maximized="1"
     inkscape:window-y="-8"
     inkscape:window-x="-8"
     inkscape:window-height="1027"
     inkscape:window-width="1920"
     showgrid="false"
     inkscape:document-rotation="0"
     inkscape:current-layer="layer1"
     inkscape:document-units="mm"
     inkscape:cy="560"
     inkscape:cx="-150"
     inkscape:zoom="0.35"
     inkscape:pageshadow="2"
     inkscape:pageopacity="0.0"
     borderopacity="1.0"
     bordercolor="#666666"
     pagecolor="#ffffff"
     id="base" />
  <metadata
     id="metadata3066">
    <rdf:RDF>
      <cc:Work
         rdf:about="">
        <dc:format>image/svg+xml</dc:format>
        <dc:type
           rdf:resource="http://purl.org/dc/dcmitype/StillImage" />
        <dc:title></dc:title>
      </cc:Work>
    </rdf:RDF>
  </metadata>
  <g
     id="layer1"
     inkscape:groupmode="layer"
     inkscape:label="Layer 1">
    <path
       style="color:#000000;font-style:normal;font-variant:normal;font-weight:normal;font-stretch:normal;font-size:medium;line-height:normal;font-family:sans-serif;font-variant-ligatures:normal;font-variant-position:normal;font-variant-caps:normal;font-variant-numeric:normal;font-variant-alternates:normal;font-variant-east-asian:normal;font-feature-settings:normal;font-variation-settings:normal;text-indent:0;text-align:start;text-decoration:none;text-decoration-line:none;text-decoration-style:solid;text-decoration-color:#000000;letter-spacing:normal;word-spacing:normal;text-transform:none;writing-mode:lr-tb;direction:ltr;text-orientation:mixed;dominant-baseline:auto;baseline-shift:baseline;text-anchor:start;white-space:normal;shape-padding:0;shape-margin:0;inline-size:0;clip-rule:nonzero;display:inline;overflow:visible;visibility:visible;opacity:1;isolation:auto;mix-blend-mode:normal;color-interpolation:sRGB;color-interpolation-filters:linearRGB;solid-color:#000000;solid-opacity:1;vector-effect:none;fill:#000000;fill-opacity:1;fill-rule:nonzero;stroke:none;stroke-width:20;stroke-linecap:round;stroke-linejoin:round;stroke-miterlimit:10;stroke-dasharray:none;stroke-dashoffset:0;stroke-opacity:1;color-rendering:auto;image-rendering:auto;shape-rendering:auto;text-rendering:auto;enable-background:accumulate;stop-color:#000000;stop-opacity:1"
       d="m 15.332955,16.680212 a 10.001,10.001 0 0 0 -8.66027,14.99976 l 84.64116,146.602798 0.024,0.042 a 9.9999998,9.9999998 0 0 0 0.0558,0.0942 9.9999998,9.9999998 0 0 0 0.0537,0.0903 9.9999998,9.9999998 0 0 0 0.0531,0.0861 9.9999998,9.9999998 0 0 0 0.0792,0.12629 9.9999998,9.9999998 0 0 0 0.0332,0.0508 9.9999998,9.9999998 0 0 0 0.0379,0.0586 9.9999998,9.9999998 0 0 0 0.0544,0.0808 9.9999998,9.9999998 0 0 0 0.0476,0.0709 9.9999998,9.9999998 0 0 0 0.0201,0.0282 9.9999998,9.9999998 0 0 0 0.0758,0.1083 9.9999998,9.9999998 0 0 0 0.006,0.007 9.9999998,9.9999998 0 0 0 0.0737,0.10265 9.9999998,9.9999998 0 0 0 0.0145,0.0212 9.9999998,9.9999998 0 0 0 0.0661,0.0882 9.9999998,9.9999998 0 0 0 0.0709,0.0931 9.9999998,9.9999998 0 0 0 0.0407,0.0529 9.9999998,9.9999998 0 0 0 0.0353,0.0441 9.9999998,9.9999998 0 0 0 0.0469,0.0593 9.9999998,9.9999998 0 0 0 0.0303,0.0374 9.9999998,9.9999998 0 0 0 0.10061,0.12171 9.9999998,9.9999998 0 0 0 0.0758,0.0896 9.9999998,9.9999998 0 0 0 0.0614,0.0702 9.9999998,9.9999998 0 0 0 0.0668,0.0759 9.9999998,9.9999998 0 0 0 0.003,0.004 9.9999998,9.9999998 0 0 0 0.0737,0.0811 9.9999998,9.9999998 0 0 0 0.0868,0.0945 9.9999998,9.9999998 0 0 0 0.0303,0.0318 9.9999998,9.9999998 0 0 0 0.0703,0.0744 9.9999998,9.9999998 0 0 0 0.0482,0.0494 9.9999998,9.9999998 0 0 0 0.0578,0.0579 9.9999998,9.9999998 0 0 0 0.0421,0.043 9.9999998,9.9999998 0 0 0 0.0772,0.0748 9.9999998,9.9999998 0 0 0 0.0413,0.0409 9.9999998,9.9999998 0 0 0 0.0208,0.0212 9.9999998,9.9999998 0 0 0 0.0799,0.0751 9.9999998,9.9999998 0 0 0 0.0889,0.0822 9.9999998,9.9999998 0 0 0 0.0421,0.0385 9.9999998,9.9999998 0 0 0 0.0208,0.0177 9.9999998,9.9999998 0 0 0 0.0827,0.073 9.9999998,9.9999998 0 0 0 0.0944,0.0819 9.9999998,9.9999998 0 0 0 0.0372,0.0318 9.9999998,9.9999998 0 0 0 0.073,0.0607 9.9999998,9.9999998 0 0 0 0.0593,0.0497 9.9999998,9.9999998 0 0 0 0.062,0.0494 9.9999998,9.9999998 0 0 0 0.0482,0.0388 9.9999998,9.9999998 0 0 0 0.0544,0.0434 9.9999998,9.9999998 0 0 0 0.0972,0.0748 9.9999998,9.9999998 0 0 0 0.0958,0.0727 9.9999998,9.9999998 0 0 0 0.0303,0.0212 9.9999998,9.9999998 0 0 0 0.0889,0.0649 9.9999998,9.9999998 0 0 0 0.1275,0.09 9.9999998,9.9999998 0 0 0 0.003,0 9.9999998,9.9999998 0 0 0 0.0903,0.0621 9.9999998,9.9999998 0 0 0 0.0627,0.0427 9.9999998,9.9999998 0 0 0 0.0958,0.0628 9.9999998,9.9999998 0 0 0 0.0159,0.0106 9.9999998,9.9999998 0 0 0 0.0365,0.0247 9.9999998,9.9999998 0 0 0 0.093,0.0593 9.9999998,9.9999998 0 0 0 0.0896,0.0557 9.9999998,9.9999998 0 0 0 0.0717,0.0441 9.9999998,9.9999998 0 0 0 0.0138,0.007 9.9999998,9.9999998 0 0 0 0.0944,0.0557 9.9999998,9.9999998 0 0 0 0.0414,0.0247 9.9999998,9.9999998 0 0 0 0.0208,0.0106 9.9999998,9.9999998 0 0 0 0.13642,0.0773 9.9999998,9.9999998 0 0 0 0.11712,0.0639 9.9999998,9.9999998 0 0 0 0.0923,0.049 9.9999998,9.9999998 0 0 0 0.0614,0.0317 9.9999998,9.9999998 0 0 0 0.0353,0.0176 9.9999998,9.9999998 0 0 0 0.0917,0.0466 9.9999998,9.9999998 0 0 0 0.0215,0.0106 9.9999998,9.9999998 0 0 0 0.12266,0.06 9.9999998,9.9999998 0 0 0 0.0758,0.0353 9.9999998,9.9999998 0 0 0 0.0847,0.0392 9.9999998,9.9999998 0 0 0 0.003,0 9.9999998,9.9999998 0 0 0 0.12262,0.0554 9.9999998,9.9999998 0 0 0 0.0786,0.0353 9.9999998,9.9999998 0 0 0 0.0662,0.0282 9.9999998,9.9999998 0 0 0 0.0222,0.0106 9.9999998,9.9999998 0 0 0 0.12954,0.0529 9.9999998,9.9999998 0 0 0 0.0166,0.007 9.9999998,9.9999998 0 0 0 0.12471,0.0487 9.9999998,9.9999998 0 0 0 0.0226,0.0106 9.9999998,9.9999998 0 0 0 0.12542,0.0469 9.9999998,9.9999998 0 0 0 0.0648,0.0247 9.9999998,9.9999998 0 0 0 0.10611,0.0377 9.9999998,9.9999998 0 0 0 0.14951,0.0505 9.9999998,9.9999998 0 0 0 0.15088,0.0483 9.9999998,9.9999998 0 0 0 0.13229,0.0406 9.9999998,9.9999998 0 0 0 0.0792,0.0212 9.9999998,9.9999998 0 0 0 0.0889,0.0247 9.9999998,9.9999998 0 0 0 0.0247,0.007 9.9999998,9.9999998 0 0 0 0.1137,0.0317 9.9999998,9.9999998 0 0 0 0.0166,0.004 9.9999998,9.9999998 0 0 0 0.12951,0.0318 9.9999998,9.9999998 0 0 0 0.0827,0.0212 9.9999998,9.9999998 0 0 0 0.0944,0.0212 9.9999998,9.9999998 0 0 0 0.15226,0.0317 9.9999998,9.9999998 0 0 0 0.004,0 9.9999998,9.9999998 0 0 0 0.13158,0.0282 9.9999998,9.9999998 0 0 0 0.10132,0.0177 9.9999998,9.9999998 0 0 0 0.0709,0.0141 9.9999998,9.9999998 0 0 0 0.0268,0.004 9.9999998,9.9999998 0 0 0 0.13505,0.0247 9.9999998,9.9999998 0 0 0 0.14538,0.0212 9.9999998,9.9999998 0 0 0 0.0386,0.007 9.9999998,9.9999998 0 0 0 0.12883,0.0177 9.9999998,9.9999998 0 0 0 0.14058,0.0177 9.9999998,9.9999998 0 0 0 0.0159,0 9.9999998,9.9999998 0 0 0 0.13367,0.0141 9.9999998,9.9999998 0 0 0 0.15709,0.0141 9.9999998,9.9999998 0 0 0 0.0696,0.007 9.9999998,9.9999998 0 0 0 0.11162,0.007 9.9999998,9.9999998 0 0 0 0.3121,0.0177 9.9999998,9.9999998 0 0 0 0.13713,0.004 9.9999998,9.9999998 0 0 0 0.10957,0 9.9999998,9.9999998 0 0 0 0.0723,0 9.9999998,9.9999998 0 0 0 0.134365,0 9.9999998,9.9999998 0 0 0 0.11921,0 9.9999998,9.9999998 0 0 0 0.0386,0 9.9999998,9.9999998 0 0 0 0.024,0 9.9999998,9.9999998 0 0 0 0.13366,-0.004 9.9999998,9.9999998 0 0 0 0.13162,-0.007 9.9999998,9.9999998 0 0 0 0.0261,0 9.9999998,9.9999998 0 0 0 0.024,0 9.9999998,9.9999998 0 0 0 0.13367,-0.0106 9.9999998,9.9999998 0 0 0 0.0799,-0.007 9.9999998,9.9999998 0 0 0 0.10128,-0.007 9.9999998,9.9999998 0 0 0 0.0737,-0.007 9.9999998,9.9999998 0 0 0 0.0593,-0.007 9.9999998,9.9999998 0 0 0 0.1571,-0.0176 9.9999998,9.9999998 0 0 0 0.0233,0 9.9999998,9.9999998 0 0 0 0.13299,-0.0177 9.9999998,9.9999998 0 0 0 0.024,-0.004 9.9999998,9.9999998 0 0 0 0.13229,-0.0212 9.9999998,9.9999998 0 0 0 0.0233,-0.004 9.9999998,9.9999998 0 0 0 0.13229,-0.0212 9.9999998,9.9999998 0 0 0 0.024,-0.004 9.9999998,9.9999998 0 0 0 0.13159,-0.0247 9.9999998,9.9999998 0 0 0 0.30938,-0.0624 9.9999998,9.9999998 0 0 0 0.11646,-0.0282 9.9999998,9.9999998 0 0 0 0.0379,-0.007 9.9999998,9.9999998 0 0 0 0.0226,-0.007 9.9999998,9.9999998 0 0 0 0.13024,-0.0318 9.9999998,9.9999998 0 0 0 0.0233,-0.007 9.9999998,9.9999998 0 0 0 0.12954,-0.0353 9.9999998,9.9999998 0 0 0 0.0233,-0.007 9.9999998,9.9999998 0 0 0 0.12884,-0.0367 9.9999998,9.9999998 0 0 0 0.0226,-0.007 9.9999998,9.9999998 0 0 0 0.12883,-0.0381 9.9999998,9.9999998 0 0 0 0.0229,-0.007 9.9999998,9.9999998 0 0 0 0.12813,-0.0402 9.9999998,9.9999998 0 0 0 0.0226,-0.007 9.9999998,9.9999998 0 0 0 0.12679,-0.042 9.9999998,9.9999998 0 0 0 0.0226,-0.007 9.9999998,9.9999998 0 0 0 0.12679,-0.0448 9.9999998,9.9999998 0 0 0 0.0222,-0.007 9.9999998,9.9999998 0 0 0 0.12608,-0.0462 9.9999998,9.9999998 0 0 0 0.0222,-0.007 9.9999998,9.9999998 0 0 0 0.12542,-0.0483 9.9999998,9.9999998 0 0 0 0.0222,-0.0106 9.9999998,9.9999998 0 0 0 0.12471,-0.0501 9.9999998,9.9999998 0 0 0 0.0222,-0.0106 9.9999998,9.9999998 0 0 0 0.12333,-0.0522 9.9999998,9.9999998 0 0 0 0.12403,-0.0543 9.9999998,9.9999998 0 0 0 0.0208,-0.0106 9.9999998,9.9999998 0 0 0 0.0212,-0.0106 9.9999998,9.9999998 0 0 0 0.12195,-0.0557 9.9999998,9.9999998 0 0 0 0.0222,-0.0106 9.9999998,9.9999998 0 0 0 0.12058,-0.0582 9.9999998,9.9999998 0 0 0 0.0215,-0.0106 9.9999998,9.9999998 0 0 0 0.11988,-0.06 9.9999998,9.9999998 0 0 0 0.0212,-0.0106 9.9999998,9.9999998 0 0 0 0.1192,-0.0614 9.9999998,9.9999998 0 0 0 0.0215,-0.0106 9.9999998,9.9999998 0 0 0 0.11783,-0.0642 9.9999998,9.9999998 0 0 0 0.0208,-0.0106 9.9999998,9.9999998 0 0 0 0.11712,-0.0656 9.9999998,9.9999998 0 0 0 0.0208,-0.0106 9.9999998,9.9999998 0 0 0 0.10679,-0.0621 9.9999998,9.9999998 0 0 0 0.0303,-0.0177 9.9999998,9.9999998 0 0 0 0.0406,-0.0247 9.9999998,9.9999998 0 0 0 0.0353,-0.0212 9.9999998,9.9999998 0 0 0 0.0999,-0.0614 9.9999998,9.9999998 0 0 0 0.12608,-0.0794 9.9999998,9.9999998 0 0 0 0.008,-0.004 9.9999998,9.9999998 0 0 0 0.0923,-0.06 9.9999998,9.9999998 0 0 0 0.04,-0.0247 9.9999998,9.9999998 0 0 0 0.0909,-0.0614 9.9999998,9.9999998 0 0 0 0.04,-0.0282 9.9999998,9.9999998 0 0 0 0.0187,-0.0141 9.9999998,9.9999998 0 0 0 0.11024,-0.0773 9.9999998,9.9999998 0 0 0 0.0896,-0.0642 9.9999998,9.9999998 0 0 0 0.0386,-0.0282 9.9999998,9.9999998 0 0 0 0.0882,-0.066 9.9999998,9.9999998 0 0 0 0.0386,-0.0282 9.9999998,9.9999998 0 0 0 0.0868,-0.067 9.9999998,9.9999998 0 0 0 0.0379,-0.0282 9.9999998,9.9999998 0 0 0 0.0862,-0.0681 9.9999998,9.9999998 0 0 0 0.0372,-0.0317 9.9999998,9.9999998 0 0 0 0.12196,-0.10054 9.9999998,9.9999998 0 0 0 0.0841,-0.0713 9.9999998,9.9999998 0 0 0 0.006,-0.004 9.9999998,9.9999998 0 0 0 0.0703,-0.0614 9.9999998,9.9999998 0 0 0 0.0758,-0.067 9.9999998,9.9999998 0 0 0 0.004,0 9.9999998,9.9999998 0 0 0 0.0813,-0.0737 9.9999998,9.9999998 0 0 0 0.0944,-0.0868 9.9999998,9.9999998 0 0 0 0.0215,-0.0212 9.9999998,9.9999998 0 0 0 0.0353,-0.0317 9.9999998,9.9999998 0 0 0 0.0792,-0.0765 9.9999998,9.9999998 0 0 0 0.0346,-0.0318 9.9999998,9.9999998 0 0 0 0.0778,-0.0773 9.9999998,9.9999998 0 0 0 0.0339,-0.0353 9.9999998,9.9999998 0 0 0 0.0772,-0.0783 9.9999998,9.9999998 0 0 0 0.0332,-0.0353 9.9999998,9.9999998 0 0 0 0.0751,-0.0801 9.9999998,9.9999998 0 0 0 0.0332,-0.0353 9.9999998,9.9999998 0 0 0 0.0744,-0.0815 9.9999998,9.9999998 0 0 0 0.0317,-0.0353 9.9999998,9.9999998 0 0 0 0.073,-0.0829 9.9999998,9.9999998 0 0 0 0.0318,-0.0356 9.9999998,9.9999998 0 0 0 0.0717,-0.0836 9.9999998,9.9999998 0 0 0 0.031,-0.0363 9.9999998,9.9999998 0 0 0 0.0703,-0.0847 9.9999998,9.9999998 0 0 0 0.0303,-0.0374 9.9999998,9.9999998 0 0 0 0.0689,-0.0854 9.9999998,9.9999998 0 0 0 0.0303,-0.0377 9.9999998,9.9999998 0 0 0 0.0212,-0.0282 9.9999998,9.9999998 0 0 0 0.0751,-0.0974 9.9999998,9.9999998 0 0 0 0.0661,-0.0875 9.9999998,9.9999998 0 0 0 0.0289,-0.0384 9.9999998,9.9999998 0 0 0 0.0648,-0.0889 9.9999998,9.9999998 0 0 0 0.0903,-0.12771 9.9999998,9.9999998 0 0 0 0.0275,-0.0395 9.9999998,9.9999998 0 0 0 0.062,-0.091 9.9999998,9.9999998 0 0 0 0.0261,-0.0391 9.9999998,9.9999998 0 0 0 0.0606,-0.0924 9.9999998,9.9999998 0 0 0 0.0261,-0.0399 9.9999998,9.9999998 0 0 0 0.0593,-0.0931 9.9999998,9.9999998 0 0 0 0.0254,-0.0406 9.9999998,9.9999998 0 0 0 0.0102,-0.0176 9.9999998,9.9999998 0 0 0 0.0655,-0.10619 9.9999998,9.9999998 0 0 0 0.007,-0.0106 9.9999998,9.9999998 0 0 0 0.0558,-0.0942 9.9999998,9.9999998 0 0 0 0.0247,-0.0413 9.9999998,9.9999998 0 0 0 0.0131,-0.0247 L 193.32731,31.678912 a 10.001,10.001 0 0 0 -8.66027,-14.99976 z m 17.32058,20.00003 H 167.34296 L 99.998245,153.32444 Z"
       id="path2984" />
  </g>
</svg>
