<?xml version="1.0" encoding="UTF-8" standalone="no"?>
<svg
   xmlns:dc="http://purl.org/dc/elements/1.1/"
   xmlns:cc="http://creativecommons.org/ns#"
   xmlns:rdf="http://www.w3.org/1999/02/22-rdf-syntax-ns#"
   xmlns:svg="http://www.w3.org/2000/svg"
   xmlns="http://www.w3.org/2000/svg"
   xmlns:sodipodi="http://sodipodi.sourceforge.net/DTD/sodipodi-0.dtd"
   xmlns:inkscape="http://www.inkscape.org/namespaces/inkscape"
   sodipodi:docname="5.svg"
   inkscape:version="1.0 (4035a4fb49, 2020-05-01)"
   id="svg7420"
   version="1.1"
   viewBox="0 0 200 200"
   height="200mm"
   width="200mm">
  <defs
     id="defs7414" />
  <sodipodi:namedview
     inkscape:window-maximized="0"
     inkscape:window-y="0"
     inkscape:window-x="52"
     inkscape:window-height="1041"
     inkscape:window-width="1274"
     showgrid="false"
     inkscape:document-rotation="0"
     inkscape:current-layer="layer1"
     inkscape:document-units="mm"
     inkscape:cy="560"
     inkscape:cx="-150"
     inkscape:zoom="0.35"
     inkscape:pageshadow="2"
     inkscape:pageopacity="0.0"
     borderopacity="1.0"
     bordercolor="#666666"
     pagecolor="#ffffff"
     id="base" />
  <metadata
     id="metadata7417">
    <rdf:RDF>
      <cc:Work
         rdf:about="">
        <dc:format>image/svg+xml</dc:format>
        <dc:type
           rdf:resource="http://purl.org/dc/dcmitype/StillImage" />
        <dc:title></dc:title>
      </cc:Work>
    </rdf:RDF>
  </metadata>
  <g
     id="layer1"
     inkscape:groupmode="layer"
     inkscape:label="Layer 1">
    <path
       id="path7991"
       d="M 99.876953 1.0976562 A 10.001 10.001 0 0 0 92.929688 4.0253906 L 4.0390625 92.916016 L 4.0253906 92.929688 A 10 10 0 0 0 3.8398438 93.119141 A 10 10 0 0 0 3.6582031 93.314453 A 10 10 0 0 0 3.484375 93.515625 A 10 10 0 0 0 3.3144531 93.71875 A 10 10 0 0 0 3.1503906 93.929688 A 10 10 0 0 0 2.9921875 94.142578 A 10 10 0 0 0 2.8378906 94.359375 A 10 10 0 0 0 2.1640625 95.503906 A 10 10 0 0 0 1.9375 95.984375 A 10 10 0 0 0 1.8339844 96.230469 A 10 10 0 0 0 1.6464844 96.728516 A 10 10 0 0 0 1.5625 96.980469 A 10 10 0 0 0 1.4863281 97.234375 A 10 10 0 0 0 1.4160156 97.492188 A 10 10 0 0 0 1.296875 98.009766 A 10 10 0 0 0 1.2460938 98.271484 A 10 10 0 0 0 1.2050781 98.533203 A 10 10 0 0 0 1.140625 99.060547 A 10 10 0 0 0 1.1191406 99.326172 A 10 10 0 0 0 1.0976562 100.12305 A 10 10 0 0 0 1.1035156 100.38867 A 10 10 0 0 0 1.1171875 100.6543 A 10 10 0 0 0 1.1386719 100.91992 A 10 10 0 0 0 1.1660156 101.18359 A 10 10 0 0 0 1.2441406 101.71094 A 10 10 0 0 0 1.2929688 101.97266 A 10 10 0 0 0 1.3476562 102.23242 A 10 10 0 0 0 1.5566406 103.00195 A 10 10 0 0 0 1.640625 103.25391 A 10 10 0 0 0 1.8261719 103.75195 A 10 10 0 0 0 2.2773438 104.71484 A 10 10 0 0 0 2.40625 104.94727 A 10 10 0 0 0 2.5410156 105.17773 A 10 10 0 0 0 2.828125 105.625 A 10 10 0 0 0 2.9804688 105.8418 A 10 10 0 0 0 3.3027344 106.26562 A 10 10 0 0 0 4.0253906 107.07031 L 92.929688 195.97461 A 10.001 10.001 0 0 0 107.07031 195.97461 L 195.97461 107.07031 A 10.001 10.001 0 0 0 195.97461 92.929688 L 107.07031 4.0253906 A 10.001 10.001 0 0 0 99.876953 1.0976562 z M 100 25.238281 L 174.76367 100 L 100 174.76172 L 25.238281 100 L 100 25.238281 z "
       style="color:#000000;font-style:normal;font-variant:normal;font-weight:normal;font-stretch:normal;font-size:medium;line-height:normal;font-family:sans-serif;font-variant-ligatures:normal;font-variant-position:normal;font-variant-caps:normal;font-variant-numeric:normal;font-variant-alternates:normal;font-variant-east-asian:normal;font-feature-settings:normal;font-variation-settings:normal;text-indent:0;text-align:start;text-decoration:none;text-decoration-line:none;text-decoration-style:solid;text-decoration-color:#000000;letter-spacing:normal;word-spacing:normal;text-transform:none;writing-mode:lr-tb;direction:ltr;text-orientation:mixed;dominant-baseline:auto;baseline-shift:baseline;text-anchor:start;white-space:normal;shape-padding:0;shape-margin:0;inline-size:0;clip-rule:nonzero;display:inline;overflow:visible;visibility:visible;isolation:auto;mix-blend-mode:normal;color-interpolation:sRGB;color-interpolation-filters:linearRGB;solid-color:#000000;solid-opacity:1;vector-effect:none;fill:#000000;fill-opacity:1;fill-rule:nonzero;stroke:none;stroke-width:20;stroke-linecap:round;stroke-linejoin:round;stroke-miterlimit:10;stroke-dasharray:none;stroke-dashoffset:0;stroke-opacity:1;color-rendering:auto;image-rendering:auto;shape-rendering:auto;text-rendering:auto;enable-background:accumulate;stop-color:#000000;stop-opacity:1;opacity:1" />
  </g>
</svg>
