<?xml version="1.0" encoding="UTF-8" standalone="no"?>
<svg
   xmlns:dc="http://purl.org/dc/elements/1.1/"
   xmlns:cc="http://creativecommons.org/ns#"
   xmlns:rdf="http://www.w3.org/1999/02/22-rdf-syntax-ns#"
   xmlns:svg="http://www.w3.org/2000/svg"
   xmlns="http://www.w3.org/2000/svg"
   xmlns:sodipodi="http://sodipodi.sourceforge.net/DTD/sodipodi-0.dtd"
   xmlns:inkscape="http://www.inkscape.org/namespaces/inkscape"
   sodipodi:docname="6.svg"
   inkscape:version="1.0 (4035a4fb49, 2020-05-01)"
   id="svg1121"
   version="1.1"
   viewBox="0 0 200 200"
   height="200mm"
   width="200mm">
  <defs
     id="defs1115" />
  <sodipodi:namedview
     inkscape:window-maximized="0"
     inkscape:window-y="0"
     inkscape:window-x="26"
     inkscape:window-height="1041"
     inkscape:window-width="1274"
     showgrid="false"
     inkscape:document-rotation="0"
     inkscape:current-layer="layer1"
     inkscape:document-units="mm"
     inkscape:cy="560"
     inkscape:cx="-150"
     inkscape:zoom="0.35"
     inkscape:pageshadow="2"
     inkscape:pageopacity="0.0"
     borderopacity="1.0"
     bordercolor="#666666"
     pagecolor="#ffffff"
     id="base" />
  <metadata
     id="metadata1118">
    <rdf:RDF>
      <cc:Work
         rdf:about="">
        <dc:format>image/svg+xml</dc:format>
        <dc:type
           rdf:resource="http://purl.org/dc/dcmitype/StillImage" />
        <dc:title></dc:title>
      </cc:Work>
    </rdf:RDF>
  </metadata>
  <g
     id="layer1"
     inkscape:groupmode="layer"
     inkscape:label="Layer 1">
    <path
       id="path1692"
       d="M 15.333984 16.677734 A 10.001 10.001 0 0 0 6.6738281 31.677734 L 91.289062 178.23242 A 10 10 0 0 0 91.291016 178.23828 L 91.339844 178.32227 A 10 10 0 0 0 91.414062 178.44531 A 10 10 0 0 0 91.429688 178.47461 A 10 10 0 0 0 91.523438 178.62695 A 10 10 0 0 0 91.580078 178.7168 A 10 10 0 0 0 91.701172 178.90234 A 10 10 0 0 0 91.716797 178.92188 A 10 10 0 0 0 91.798828 179.04102 A 10 10 0 0 0 91.919922 179.21289 A 10 10 0 0 0 92.042969 179.37695 A 10 10 0 0 0 92.144531 179.50977 A 10 10 0 0 0 92.205078 179.58594 A 10 10 0 0 0 92.3125 179.71484 A 10 10 0 0 0 92.373047 179.78906 A 10 10 0 0 0 92.480469 179.91211 A 10 10 0 0 0 92.546875 179.98828 A 10 10 0 0 0 92.589844 180.03711 A 10 10 0 0 0 92.703125 180.1582 A 10 10 0 0 0 92.863281 180.32422 A 10 10 0 0 0 92.923828 180.38477 A 10 10 0 0 0 93.03125 180.49219 A 10 10 0 0 0 93.087891 180.54883 A 10 10 0 0 0 93.234375 180.68555 A 10 10 0 0 0 93.304688 180.75 A 10 10 0 0 0 93.408203 180.8418 A 10 10 0 0 0 93.511719 180.92969 A 10 10 0 0 0 93.595703 181 A 10 10 0 0 0 93.730469 181.11133 A 10 10 0 0 0 93.832031 181.19141 A 10 10 0 0 0 93.892578 181.23828 A 10 10 0 0 0 94.09375 181.39062 A 10 10 0 0 0 94.310547 181.54492 A 10 10 0 0 0 94.513672 181.68164 A 10 10 0 0 0 94.546875 181.70312 A 10 10 0 0 0 94.712891 181.80859 A 10 10 0 0 0 94.783203 181.85156 A 10 10 0 0 0 94.939453 181.94531 A 10 10 0 0 0 95 181.98242 A 10 10 0 0 0 95.041016 182.00586 A 10 10 0 0 0 95.183594 182.08398 A 10 10 0 0 0 95.263672 182.12891 A 10 10 0 0 0 95.345703 182.17188 A 10 10 0 0 0 95.519531 182.26172 A 10 10 0 0 0 95.591797 182.29688 A 10 10 0 0 0 95.773438 182.38477 A 10 10 0 0 0 95.798828 182.39648 A 10 10 0 0 0 95.990234 182.48242 A 10 10 0 0 0 96.136719 182.54492 A 10 10 0 0 0 96.210938 182.57617 A 10 10 0 0 0 96.427734 182.66211 A 10 10 0 0 0 96.445312 182.66797 A 10 10 0 0 0 96.640625 182.74023 A 10 10 0 0 0 96.710938 182.76562 A 10 10 0 0 0 96.935547 182.83984 A 10 10 0 0 0 96.941406 182.8418 A 10 10 0 0 0 96.943359 182.8418 A 10 10 0 0 0 97.154297 182.9082 A 10 10 0 0 0 97.222656 182.92773 A 10 10 0 0 0 97.328125 182.95703 A 10 10 0 0 0 97.53125 183.01172 A 10 10 0 0 0 97.785156 183.07227 A 10 10 0 0 0 97.861328 183.08984 A 10 10 0 0 0 97.976562 183.11523 A 10 10 0 0 0 98.173828 183.15234 A 10 10 0 0 0 98.277344 183.17188 A 10 10 0 0 0 98.310547 183.17773 A 10 10 0 0 0 98.492188 183.20703 A 10 10 0 0 0 98.71875 183.23828 A 10 10 0 0 0 98.792969 183.24805 A 10 10 0 0 0 98.925781 183.26367 A 10 10 0 0 0 99.064453 183.27734 A 10 10 0 0 0 99.179688 183.28711 A 10 10 0 0 0 99.320312 183.29883 A 10 10 0 0 0 99.4375 183.30664 A 10 10 0 0 0 99.632812 183.31445 A 10 10 0 0 0 99.816406 183.32031 A 10 10 0 0 0 99.837891 183.32031 A 10 10 0 0 0 99.990234 183.32227 A 10 10 0 0 0 100.16406 183.32031 A 10 10 0 0 0 100.41602 183.3125 A 10 10 0 0 0 100.42969 183.3125 A 10 10 0 0 0 100.69531 183.29688 A 10 10 0 0 0 100.71875 183.29492 A 10 10 0 0 0 100.92969 183.27734 A 10 10 0 0 0 100.96094 183.27539 A 10 10 0 0 0 101.14258 183.25586 A 10 10 0 0 0 101.22461 183.24609 A 10 10 0 0 0 101.40625 183.22266 A 10 10 0 0 0 101.48828 183.21094 A 10 10 0 0 0 101.66992 183.18164 A 10 10 0 0 0 101.68359 183.17969 A 10 10 0 0 0 101.93164 183.13281 A 10 10 0 0 0 102.17578 183.08203 A 10 10 0 0 0 102.19141 183.07812 A 10 10 0 0 0 102.27148 183.06055 A 10 10 0 0 0 102.33594 183.04492 A 10 10 0 0 0 102.5293 182.99609 A 10 10 0 0 0 102.77148 182.92969 A 10 10 0 0 0 102.78711 182.92578 A 10 10 0 0 0 102.82812 182.91406 A 10 10 0 0 0 103.03906 182.84766 A 10 10 0 0 0 103.04102 182.84766 A 10 10 0 0 0 103.21484 182.79102 A 10 10 0 0 0 103.29297 182.76367 A 10 10 0 0 0 103.30859 182.75781 A 10 10 0 0 0 103.54297 182.67383 A 10 10 0 0 0 103.71484 182.60742 A 10 10 0 0 0 103.95898 182.50391 A 10 10 0 0 0 104.15039 182.41992 A 10 10 0 0 0 104.20312 182.39648 A 10 10 0 0 0 104.27734 182.36133 A 10 10 0 0 0 104.44141 182.28125 A 10 10 0 0 0 104.51562 182.24414 A 10 10 0 0 0 104.67773 182.16016 A 10 10 0 0 0 104.75195 182.12109 A 10 10 0 0 0 104.91211 182.0332 A 10 10 0 0 0 104.98438 181.99219 A 10 10 0 0 0 105 181.98242 A 10 10 0 0 0 105.04492 181.95508 A 10 10 0 0 0 105.14258 181.89844 A 10 10 0 0 0 105.22852 181.8457 A 10 10 0 0 0 105.36719 181.75977 A 10 10 0 0 0 105.39453 181.74219 A 10 10 0 0 0 105.58008 181.62109 A 10 10 0 0 0 105.58984 181.61328 A 10 10 0 0 0 105.5957 181.60938 A 10 10 0 0 0 105.79492 181.4707 A 10 10 0 0 0 105.80859 181.46094 A 10 10 0 0 0 105.89062 181.40234 A 10 10 0 0 0 105.93359 181.37109 A 10 10 0 0 0 106.10352 181.24219 A 10 10 0 0 0 106.23438 181.14062 A 10 10 0 0 0 106.3125 181.07812 A 10 10 0 0 0 106.43945 180.97266 A 10 10 0 0 0 106.51562 180.9082 A 10 10 0 0 0 106.56445 180.86523 A 10 10 0 0 0 106.71484 180.73047 A 10 10 0 0 0 106.83594 180.61914 A 10 10 0 0 0 106.83789 180.61719 A 10 10 0 0 0 106.96289 180.49805 A 10 10 0 0 0 107.09961 180.36328 A 10 10 0 0 0 107.21484 180.24609 A 10 10 0 0 0 107.28516 180.17188 A 10 10 0 0 0 107.39648 180.05273 A 10 10 0 0 0 107.46484 179.97656 A 10 10 0 0 0 107.57227 179.85352 A 10 10 0 0 0 107.63867 179.77539 A 10 10 0 0 0 107.74414 179.64844 A 10 10 0 0 0 107.80664 179.57031 A 10 10 0 0 0 107.95117 179.38672 A 10 10 0 0 0 107.9707 179.36133 A 10 10 0 0 0 108.06836 179.22852 A 10 10 0 0 0 108.22266 179.01172 A 10 10 0 0 0 108.37109 178.79102 A 10 10 0 0 0 108.51367 178.56641 A 10 10 0 0 0 108.56641 178.48047 A 10 10 0 0 0 108.65039 178.33789 A 10 10 0 0 0 108.66016 178.32227 A 10 10 0 0 0 108.70117 178.25 L 193.32617 31.677734 A 10.001 10.001 0 0 0 184.66602 16.677734 L 15.333984 16.677734 z M 32.654297 36.677734 L 167.3457 36.677734 L 100 153.32227 L 32.654297 36.677734 z "
       style="color:#000000;font-style:normal;font-variant:normal;font-weight:normal;font-stretch:normal;font-size:medium;line-height:normal;font-family:sans-serif;font-variant-ligatures:normal;font-variant-position:normal;font-variant-caps:normal;font-variant-numeric:normal;font-variant-alternates:normal;font-variant-east-asian:normal;font-feature-settings:normal;font-variation-settings:normal;text-indent:0;text-align:start;text-decoration:none;text-decoration-line:none;text-decoration-style:solid;text-decoration-color:#000000;letter-spacing:normal;word-spacing:normal;text-transform:none;writing-mode:lr-tb;direction:ltr;text-orientation:mixed;dominant-baseline:auto;baseline-shift:baseline;text-anchor:start;white-space:normal;shape-padding:0;shape-margin:0;inline-size:0;clip-rule:nonzero;display:inline;overflow:visible;visibility:visible;isolation:auto;mix-blend-mode:normal;color-interpolation:sRGB;color-interpolation-filters:linearRGB;solid-color:#000000;solid-opacity:1;vector-effect:none;fill:#000000;fill-opacity:1;fill-rule:nonzero;stroke:none;stroke-width:20;stroke-linecap:round;stroke-linejoin:round;stroke-miterlimit:10;stroke-dasharray:none;stroke-dashoffset:0;stroke-opacity:1;color-rendering:auto;image-rendering:auto;shape-rendering:auto;text-rendering:auto;enable-background:accumulate;stop-color:#000000;stop-opacity:1;opacity:1" />
  </g>
</svg>
