<?xml version="1.0" encoding="UTF-8" standalone="no"?>
<svg
   xmlns:dc="http://purl.org/dc/elements/1.1/"
   xmlns:cc="http://creativecommons.org/ns#"
   xmlns:rdf="http://www.w3.org/1999/02/22-rdf-syntax-ns#"
   xmlns:svg="http://www.w3.org/2000/svg"
   xmlns="http://www.w3.org/2000/svg"
   xmlns:sodipodi="http://sodipodi.sourceforge.net/DTD/sodipodi-0.dtd"
   xmlns:inkscape="http://www.inkscape.org/namespaces/inkscape"
   sodipodi:docname="9.svg"
   inkscape:version="1.0 (4035a4fb49, 2020-05-01)"
   id="svg3069"
   version="1.1"
   viewBox="0 0 200 200"
   height="200mm"
   width="200mm">
  <defs
     id="defs3063" />
  <sodipodi:namedview
     inkscape:window-maximized="0"
     inkscape:window-y="0"
     inkscape:window-x="156"
     inkscape:window-height="1041"
     inkscape:window-width="1274"
     showgrid="false"
     inkscape:document-rotation="0"
     inkscape:current-layer="layer1"
     inkscape:document-units="mm"
     inkscape:cy="560"
     inkscape:cx="-5.7142857"
     inkscape:zoom="0.35"
     inkscape:pageshadow="2"
     inkscape:pageopacity="0.0"
     borderopacity="1.0"
     bordercolor="#666666"
     pagecolor="#ffffff"
     id="base" />
  <metadata
     id="metadata3066">
    <rdf:RDF>
      <cc:Work
         rdf:about="">
        <dc:format>image/svg+xml</dc:format>
        <dc:type
           rdf:resource="http://purl.org/dc/dcmitype/StillImage" />
        <dc:title></dc:title>
      </cc:Work>
    </rdf:RDF>
  </metadata>
  <g
     id="layer1"
     inkscape:groupmode="layer"
     inkscape:label="Layer 1">
    <path
       style="color:#000000;font-style:normal;font-variant:normal;font-weight:normal;font-stretch:normal;font-size:medium;line-height:normal;font-family:sans-serif;font-variant-ligatures:normal;font-variant-position:normal;font-variant-caps:normal;font-variant-numeric:normal;font-variant-alternates:normal;font-variant-east-asian:normal;font-feature-settings:normal;font-variation-settings:normal;text-indent:0;text-align:start;text-decoration:none;text-decoration-line:none;text-decoration-style:solid;text-decoration-color:#000000;letter-spacing:normal;word-spacing:normal;text-transform:none;writing-mode:lr-tb;direction:ltr;text-orientation:mixed;dominant-baseline:auto;baseline-shift:baseline;text-anchor:start;white-space:normal;shape-padding:0;shape-margin:0;inline-size:0;clip-rule:nonzero;display:inline;overflow:visible;visibility:visible;opacity:1;isolation:auto;mix-blend-mode:normal;color-interpolation:sRGB;color-interpolation-filters:linearRGB;solid-color:#000000;solid-opacity:1;vector-effect:none;fill:#000000;fill-opacity:1;fill-rule:nonzero;stroke:none;stroke-width:20;stroke-linecap:round;stroke-linejoin:round;stroke-miterlimit:10;stroke-dasharray:none;stroke-dashoffset:0;stroke-opacity:1;color-rendering:auto;image-rendering:auto;shape-rendering:auto;text-rendering:auto;enable-background:accumulate;stop-color:#000000;stop-opacity:1"
       d="m 11.095821,90.000265 a 9.9999998,9.9999998 0 0 0 -9.9997325,9.999734 9.9999998,9.9999998 0 0 0 9.9997325,9.999741 H 188.90407 a 9.9999998,9.9999998 0 0 0 9.99984,-9.999741 9.9999998,9.9999998 0 0 0 -9.99984,-9.999734 z"
       id="path2892" />
    <path
       style="color:#000000;font-style:normal;font-variant:normal;font-weight:normal;font-stretch:normal;font-size:medium;line-height:normal;font-family:sans-serif;font-variant-ligatures:normal;font-variant-position:normal;font-variant-caps:normal;font-variant-numeric:normal;font-variant-alternates:normal;font-variant-east-asian:normal;font-feature-settings:normal;font-variation-settings:normal;text-indent:0;text-align:start;text-decoration:none;text-decoration-line:none;text-decoration-style:solid;text-decoration-color:#000000;letter-spacing:normal;word-spacing:normal;text-transform:none;writing-mode:lr-tb;direction:ltr;text-orientation:mixed;dominant-baseline:auto;baseline-shift:baseline;text-anchor:start;white-space:normal;shape-padding:0;shape-margin:0;inline-size:0;clip-rule:nonzero;display:inline;overflow:visible;visibility:visible;opacity:1;isolation:auto;mix-blend-mode:normal;color-interpolation:sRGB;color-interpolation-filters:linearRGB;solid-color:#000000;solid-opacity:1;vector-effect:none;fill:#000000;fill-opacity:1;fill-rule:nonzero;stroke:none;stroke-width:20;stroke-linecap:round;stroke-linejoin:round;stroke-miterlimit:10;stroke-dasharray:none;stroke-dashoffset:0;stroke-opacity:1;color-rendering:auto;image-rendering:auto;shape-rendering:auto;text-rendering:auto;enable-background:accumulate;stop-color:#000000;stop-opacity:1"
       d="m 99.999825,1.0961425 a 9.9999998,9.9999998 0 0 0 -9.99949,9.9997335 V 188.90413 a 9.9999998,9.9999998 0 0 0 9.99949,9.99973 9.9999998,9.9999998 0 0 0 9.999845,-9.99973 V 11.095876 A 9.9999998,9.9999998 0 0 0 99.999825,1.0961425 Z"
       id="path2896" />
    <path
       style="color:#000000;font-style:normal;font-variant:normal;font-weight:normal;font-stretch:normal;font-size:medium;line-height:normal;font-family:sans-serif;font-variant-ligatures:normal;font-variant-position:normal;font-variant-caps:normal;font-variant-numeric:normal;font-variant-alternates:normal;font-variant-east-asian:normal;font-feature-settings:normal;font-variation-settings:normal;text-indent:0;text-align:start;text-decoration:none;text-decoration-line:none;text-decoration-style:solid;text-decoration-color:#000000;letter-spacing:normal;word-spacing:normal;text-transform:none;writing-mode:lr-tb;direction:ltr;text-orientation:mixed;dominant-baseline:auto;baseline-shift:baseline;text-anchor:start;white-space:normal;shape-padding:0;shape-margin:0;inline-size:0;clip-rule:nonzero;display:inline;overflow:visible;visibility:visible;opacity:1;isolation:auto;mix-blend-mode:normal;color-interpolation:sRGB;color-interpolation-filters:linearRGB;solid-color:#000000;solid-opacity:1;vector-effect:none;fill:#000000;fill-opacity:1;fill-rule:nonzero;stroke:none;stroke-width:20;stroke-linecap:round;stroke-linejoin:round;stroke-miterlimit:10;stroke-dasharray:none;stroke-dashoffset:0;stroke-opacity:1;color-rendering:auto;image-rendering:auto;shape-rendering:auto;text-rendering:auto;enable-background:accumulate;stop-color:#000000;stop-opacity:1"
       d="m 99.955234,1.0959212 a 10.001,10.001 0 0 0 -7.02804,2.928338 L 4.023208,92.928385 a 9.9999998,9.9999998 0 0 0 -0.219815,0.227364 9.9999998,9.9999998 0 0 0 -0.106786,0.115747 9.9999998,9.9999998 0 0 0 -0.10541,0.117827 9.9999998,9.9999998 0 0 0 -0.304553,0.362445 9.9999998,9.9999998 0 0 0 -0.287338,0.376872 9.9999998,9.9999998 0 0 0 -0.181222,0.25908 9.9999998,9.9999998 0 0 0 -0.711729,1.229218 9.9999998,9.9999998 0 0 0 -0.06823,0.141922 9.9999998,9.9999998 0 0 0 -0.249414,0.580144 9.9999998,9.9999998 0 0 0 -0.212901,0.595313 9.9999998,9.9999998 0 0 0 -0.04688,0.150918 9.9999998,9.9999998 0 0 0 -0.165347,0.609071 9.9999998,9.9999998 0 0 0 -0.09783,0.463727 9.9999998,9.9999998 0 0 0 -0.02822,0.155715 9.9999998,9.9999998 0 0 0 -0.04822,0.312137 9.9999998,9.9999998 0 0 0 -0.03859,0.313478 9.9999998,9.9999998 0 0 0 -0.02822,0.31422 9.9999998,9.9999998 0 0 0 -0.01023,0.157763 9.9999998,9.9999998 0 0 0 -0.0081,0.157797 9.9999998,9.9999998 0 0 0 -0.0081,0.315561 9.9999998,9.9999998 0 0 0 0,0.157796 9.9999998,9.9999998 0 0 0 0.02258,0.63183 9.9999998,9.9999998 0 0 0 0.02611,0.31418 9.9999998,9.9999998 0 0 0 0.108867,0.78204 9.9999998,9.9999998 0 0 0 0.02893,0.15572 9.9999998,9.9999998 0 0 0 0.03175,0.15434 9.9999998,9.9999998 0 0 0 0.07098,0.30801 9.9999998,9.9999998 0 0 0 0.03859,0.15296 9.9999998,9.9999998 0 0 0 0.04135,0.15226 9.9999998,9.9999998 0 0 0 0.0441,0.1523 9.9999998,9.9999998 0 0 0 0.372745,1.0397 9.9999998,9.9999998 0 0 0 0.19431,0.43272 9.9999998,9.9999998 0 0 0 0.0689,0.14125 9.9999998,9.9999998 0 0 0 0.07165,0.14126 9.9999998,9.9999998 0 0 0 0.149507,0.27767 9.9999998,9.9999998 0 0 0 0.07856,0.13779 9.9999998,9.9999998 0 0 0 0.162596,0.27079 9.9999998,9.9999998 0 0 0 0.08477,0.13296 9.9999998,9.9999998 0 0 0 0.64904,0.89437 9.9999998,9.9999998 0 0 0 0.100612,0.12125 9.9999998,9.9999998 0 0 0 0.102659,0.12058 9.9999998,9.9999998 0 0 0 0.21082,0.23498 9.9999998,9.9999998 0 0 0 0.108197,0.11504 9.9999998,9.9999998 0 0 0 0.160549,0.16468 l 88.904058,88.90412 a 10.001,10.001 0 0 0 14.142857,0 l 88.90423,-88.90412 a 10.001,10.001 0 0 0 0,-14.142795 L 107.07111,4.0242592 a 10.001,10.001 0 0 0 -7.114816,-2.928338 z m 0.0434,24.1425228 74.762076,74.761335 -74.762076,74.761341 -74.76123,-74.761341 z"
       id="path2900" />
  </g>
</svg>
