<svg xmlns="http://www.w3.org/2000/svg" id="aab4b3f7-75c2-4c27-a816-92d4fe3a720f" data-name="Layer 1" width="934.38945" height="558.23049" viewBox="0 0 934.38945 558.23049"><rect x="33.98612" y="35.18563" width="73.98471" height="49.32314" fill="#6c63ff"/><rect x="107.35429" y="35.18563" width="73.98471" height="49.32314" fill="#e6e6e6"/><rect x="180.72245" y="35.18563" width="73.98471" height="49.32314" fill="#6c63ff" opacity="0.8"/><rect x="254.09062" y="35.18563" width="73.98471" height="49.32314" fill="#6c63ff"/><rect x="327.45879" y="35.18563" width="73.98471" height="49.32314" fill="#6c63ff" opacity="0.8"/><rect x="400.82696" y="35.18563" width="73.98471" height="49.32314" fill="#e6e6e6"/><rect x="547.56329" y="35.18563" width="73.98471" height="49.32314" fill="#e6e6e6"/><rect x="33.98612" y="82.04261" width="73.98471" height="49.32314" fill="#6c63ff" opacity="0.8"/><rect x="107.35429" y="82.04261" width="73.98471" height="49.32314" fill="#6c63ff"/><rect x="254.09062" y="82.04261" width="73.98471" height="49.32314" fill="#6c63ff" opacity="0.8"/><rect x="327.45879" y="82.04261" width="73.98471" height="49.32314" fill="#6c63ff"/><rect x="400.82696" y="82.04261" width="73.98471" height="49.32314" fill="#6c63ff" opacity="0.8"/><rect x="547.56329" y="82.04261" width="73.98471" height="49.32314" fill="#6c63ff"/><rect x="33.98612" y="128.89959" width="73.98471" height="49.32314" fill="#e6e6e6"/><rect x="107.35429" y="128.89959" width="73.98471" height="49.32314" fill="#6c63ff" opacity="0.8"/><rect x="180.72245" y="128.89959" width="73.98471" height="49.32314" fill="#e6e6e6"/><rect x="254.09062" y="128.89959" width="73.98471" height="49.32314" fill="#6c63ff"/><rect x="327.45879" y="128.89959" width="73.98471" height="49.32314" fill="#6c63ff" opacity="0.8"/><rect x="400.82696" y="128.89959" width="73.98471" height="49.32314" fill="#e6e6e6"/><rect x="474.19513" y="128.89959" width="73.98471" height="49.32314" fill="#6c63ff"/><rect x="33.98612" y="175.75657" width="73.98471" height="49.32314" fill="#6c63ff"/><rect x="107.35429" y="175.75657" width="73.98471" height="49.32314" fill="#e6e6e6"/><rect x="400.82696" y="175.75657" width="73.98471" height="49.32314" fill="#6c63ff" opacity="0.8"/><rect x="33.98612" y="222.61355" width="73.98471" height="49.32314" fill="#6c63ff" opacity="0.8"/><rect x="107.35429" y="222.61355" width="73.98471" height="49.32314" fill="#6c63ff"/><rect x="180.72245" y="222.61355" width="73.98471" height="49.32314" fill="#e6e6e6"/><rect x="254.09062" y="222.61355" width="73.98471" height="49.32314" fill="#6c63ff" opacity="0.8"/><rect x="327.45879" y="222.61355" width="73.98471" height="49.32314" fill="#6c63ff" opacity="0.8"/><rect x="33.98612" y="269.47053" width="73.98471" height="49.32314" fill="#6c63ff"/><rect x="107.35429" y="269.47053" width="73.98471" height="49.32314" fill="#e6e6e6"/><rect x="180.72245" y="269.47053" width="73.98471" height="49.32314" fill="#6c63ff" opacity="0.8"/><rect x="254.09062" y="269.47053" width="73.98471" height="49.32314" fill="#6c63ff"/><rect x="33.98612" y="317.92686" width="73.98471" height="49.32314" fill="#e6e6e6"/><rect x="107.35429" y="317.92686" width="73.98471" height="49.32314" fill="#6c63ff" opacity="0.8"/><rect x="180.72245" y="317.92686" width="73.98471" height="49.32314" fill="#e6e6e6"/><rect x="180.72245" y="82.04261" width="73.98471" height="49.32314" fill="#6c63ff"/><rect x="474.19513" y="35.18563" width="73.98471" height="49.32314" fill="#6c63ff"/><rect x="327.45879" y="175.75657" width="73.98471" height="49.32314" fill="#6c63ff"/><rect x="254.09062" y="175.75657" width="73.98471" height="49.32314" fill="#e6e6e6"/><rect x="180.72245" y="175.75657" width="73.98471" height="49.32314" fill="#6c63ff" opacity="0.8"/><circle cx="11.19543" cy="59.9755" r="11.19543" fill="#3f3d56"/><circle cx="70.97847" cy="11.19543" r="11.19543" fill="#e6e6e6"/><circle cx="144.34664" cy="11.19543" r="11.19543" fill="#e6e6e6"/><circle cx="217.71481" cy="11.19543" r="11.19543" fill="#e6e6e6"/><circle cx="291.08298" cy="11.19543" r="11.19543" fill="#e6e6e6"/><circle cx="364.45114" cy="11.19543" r="11.19543" fill="#e6e6e6"/><circle cx="437.81931" cy="11.19543" r="11.19543" fill="#e6e6e6"/><circle cx="511.18748" cy="11.19543" r="11.19543" fill="#e6e6e6"/><circle cx="584.55565" cy="11.19543" r="11.19543" fill="#e6e6e6"/><circle cx="657.92381" cy="11.19543" r="11.19543" fill="#e6e6e6"/><circle cx="11.19543" cy="106.70418" r="11.19543" fill="#3f3d56"/><circle cx="11.19543" cy="153.56116" r="11.19543" fill="#3f3d56"/><circle cx="11.19543" cy="200.41814" r="11.19543" fill="#3f3d56"/><circle cx="11.19543" cy="247.27512" r="11.19543" fill="#3f3d56"/><circle cx="11.19543" cy="294.1321" r="11.19543" fill="#3f3d56"/><circle cx="11.19543" cy="342.58843" r="11.19543" fill="#3f3d56"/><rect x="474.19513" y="82.04261" width="73.98471" height="49.32314" fill="#e6e6e6"/><rect x="620.93146" y="35.18563" width="73.98471" height="49.32314" fill="#6c63ff" opacity="0.8"/></svg>
